<mxfile host="app.diagrams.net" agent="Mozilla/5.0 (X11; Linux x86_64; rv:135.0) Gecko/20100101 Firefox/135.0" version="26.2.9">
  <diagram name="Страница — 1" id="HVaa12PVnLK-rIYu1qUg">
    <mxGraphModel dx="3816" dy="1886" grid="1" gridSize="10" guides="1" tooltips="1" connect="1" arrows="1" fold="1" page="1" pageScale="1" pageWidth="827" pageHeight="1169" math="0" shadow="0">
      <root>
        <mxCell id="0" />
        <mxCell id="1" parent="0" />
        <mxCell id="kHN6MsCyqRyvkHSUbOPT-1" value="ImageLoaderBase" style="swimlane;fontStyle=0;childLayout=stackLayout;horizontal=1;startSize=26;fillColor=none;horizontalStack=0;resizeParent=1;resizeParentMax=0;resizeLast=0;collapsible=1;marginBottom=0;whiteSpace=wrap;html=1;" parent="1" vertex="1">
          <mxGeometry x="-40" y="160" width="170" height="104" as="geometry" />
        </mxCell>
        <mxCell id="kHN6MsCyqRyvkHSUbOPT-2" value="+ load_from_path(path)" style="text;strokeColor=none;fillColor=none;align=left;verticalAlign=top;spacingLeft=4;spacingRight=4;overflow=hidden;rotatable=0;points=[[0,0.5],[1,0.5]];portConstraint=eastwest;whiteSpace=wrap;html=1;" parent="kHN6MsCyqRyvkHSUbOPT-1" vertex="1">
          <mxGeometry y="26" width="170" height="26" as="geometry" />
        </mxCell>
        <mxCell id="kHN6MsCyqRyvkHSUbOPT-3" value="+ get_image()" style="text;strokeColor=none;fillColor=none;align=left;verticalAlign=top;spacingLeft=4;spacingRight=4;overflow=hidden;rotatable=0;points=[[0,0.5],[1,0.5]];portConstraint=eastwest;whiteSpace=wrap;html=1;" parent="kHN6MsCyqRyvkHSUbOPT-1" vertex="1">
          <mxGeometry y="52" width="170" height="26" as="geometry" />
        </mxCell>
        <mxCell id="kHN6MsCyqRyvkHSUbOPT-4" value="+ field: type" style="text;strokeColor=none;fillColor=none;align=left;verticalAlign=top;spacingLeft=4;spacingRight=4;overflow=hidden;rotatable=0;points=[[0,0.5],[1,0.5]];portConstraint=eastwest;whiteSpace=wrap;html=1;" parent="kHN6MsCyqRyvkHSUbOPT-1" vertex="1">
          <mxGeometry y="78" width="170" height="26" as="geometry" />
        </mxCell>
        <mxCell id="kHN6MsCyqRyvkHSUbOPT-11" value="" style="edgeStyle=orthogonalEdgeStyle;rounded=0;orthogonalLoop=1;jettySize=auto;html=1;fillColor=#f5f5f5;strokeColor=#666666;" parent="1" source="kHN6MsCyqRyvkHSUbOPT-9" target="kHN6MsCyqRyvkHSUbOPT-10" edge="1">
          <mxGeometry relative="1" as="geometry" />
        </mxCell>
        <mxCell id="kHN6MsCyqRyvkHSUbOPT-9" value="Базовый пайплайн" style="rounded=0;whiteSpace=wrap;html=1;fillColor=#f5f5f5;fontColor=#333333;strokeColor=#666666;" parent="1" vertex="1">
          <mxGeometry x="-860" y="300" width="120" height="60" as="geometry" />
        </mxCell>
        <mxCell id="kHN6MsCyqRyvkHSUbOPT-14" value="" style="edgeStyle=orthogonalEdgeStyle;rounded=0;orthogonalLoop=1;jettySize=auto;html=1;fillColor=#f5f5f5;strokeColor=#666666;" parent="1" source="kHN6MsCyqRyvkHSUbOPT-10" target="kHN6MsCyqRyvkHSUbOPT-13" edge="1">
          <mxGeometry relative="1" as="geometry" />
        </mxCell>
        <mxCell id="kHN6MsCyqRyvkHSUbOPT-10" value="загузить картинку по пути" style="whiteSpace=wrap;html=1;rounded=0;fillColor=#f5f5f5;fontColor=#333333;strokeColor=#666666;" parent="1" vertex="1">
          <mxGeometry x="-670" y="300" width="120" height="60" as="geometry" />
        </mxCell>
        <mxCell id="kHN6MsCyqRyvkHSUbOPT-18" value="" style="edgeStyle=orthogonalEdgeStyle;rounded=0;orthogonalLoop=1;jettySize=auto;html=1;fillColor=#f5f5f5;strokeColor=#666666;" parent="1" source="kHN6MsCyqRyvkHSUbOPT-13" target="kHN6MsCyqRyvkHSUbOPT-17" edge="1">
          <mxGeometry relative="1" as="geometry" />
        </mxCell>
        <mxCell id="kHN6MsCyqRyvkHSUbOPT-13" value="отредактировать картинку" style="whiteSpace=wrap;html=1;rounded=0;fillColor=#f5f5f5;fontColor=#333333;strokeColor=#666666;" parent="1" vertex="1">
          <mxGeometry x="-490" y="300" width="120" height="60" as="geometry" />
        </mxCell>
        <mxCell id="kHN6MsCyqRyvkHSUbOPT-20" style="edgeStyle=orthogonalEdgeStyle;rounded=0;orthogonalLoop=1;jettySize=auto;html=1;fillColor=#f5f5f5;strokeColor=#666666;" parent="1" source="kHN6MsCyqRyvkHSUbOPT-17" target="kHN6MsCyqRyvkHSUbOPT-19" edge="1">
          <mxGeometry relative="1" as="geometry" />
        </mxCell>
        <mxCell id="kHN6MsCyqRyvkHSUbOPT-17" value="трансформировать то, что будет печататься" style="whiteSpace=wrap;html=1;rounded=0;fillColor=#f5f5f5;fontColor=#333333;strokeColor=#666666;" parent="1" vertex="1">
          <mxGeometry x="-320" y="300" width="120" height="60" as="geometry" />
        </mxCell>
        <mxCell id="kHN6MsCyqRyvkHSUbOPT-19" value="запустить печать" style="whiteSpace=wrap;html=1;rounded=0;fillColor=#f5f5f5;fontColor=#333333;strokeColor=#666666;" parent="1" vertex="1">
          <mxGeometry x="-150" y="300" width="120" height="60" as="geometry" />
        </mxCell>
        <mxCell id="kHN6MsCyqRyvkHSUbOPT-21" value="ImageLoaderGrayscale" style="swimlane;fontStyle=0;childLayout=stackLayout;horizontal=1;startSize=26;fillColor=none;horizontalStack=0;resizeParent=1;resizeParentMax=0;resizeLast=0;collapsible=1;marginBottom=0;whiteSpace=wrap;html=1;" parent="1" vertex="1">
          <mxGeometry x="380" y="100" width="170" height="104" as="geometry" />
        </mxCell>
        <mxCell id="kHN6MsCyqRyvkHSUbOPT-22" value="+ load_from_path(path)" style="text;strokeColor=none;fillColor=none;align=left;verticalAlign=top;spacingLeft=4;spacingRight=4;overflow=hidden;rotatable=0;points=[[0,0.5],[1,0.5]];portConstraint=eastwest;whiteSpace=wrap;html=1;" parent="kHN6MsCyqRyvkHSUbOPT-21" vertex="1">
          <mxGeometry y="26" width="170" height="26" as="geometry" />
        </mxCell>
        <mxCell id="kHN6MsCyqRyvkHSUbOPT-23" value="+ get_image()" style="text;strokeColor=none;fillColor=none;align=left;verticalAlign=top;spacingLeft=4;spacingRight=4;overflow=hidden;rotatable=0;points=[[0,0.5],[1,0.5]];portConstraint=eastwest;whiteSpace=wrap;html=1;" parent="kHN6MsCyqRyvkHSUbOPT-21" vertex="1">
          <mxGeometry y="52" width="170" height="26" as="geometry" />
        </mxCell>
        <mxCell id="kHN6MsCyqRyvkHSUbOPT-24" value="+ set_params()" style="text;strokeColor=none;fillColor=none;align=left;verticalAlign=top;spacingLeft=4;spacingRight=4;overflow=hidden;rotatable=0;points=[[0,0.5],[1,0.5]];portConstraint=eastwest;whiteSpace=wrap;html=1;" parent="kHN6MsCyqRyvkHSUbOPT-21" vertex="1">
          <mxGeometry y="78" width="170" height="26" as="geometry" />
        </mxCell>
        <mxCell id="kHN6MsCyqRyvkHSUbOPT-25" value="ImageLoaderRGB" style="swimlane;fontStyle=0;childLayout=stackLayout;horizontal=1;startSize=26;fillColor=none;horizontalStack=0;resizeParent=1;resizeParentMax=0;resizeLast=0;collapsible=1;marginBottom=0;whiteSpace=wrap;html=1;" parent="1" vertex="1">
          <mxGeometry x="380" y="220" width="170" height="104" as="geometry" />
        </mxCell>
        <mxCell id="kHN6MsCyqRyvkHSUbOPT-26" value="+ load_from_path(path)" style="text;strokeColor=none;fillColor=none;align=left;verticalAlign=top;spacingLeft=4;spacingRight=4;overflow=hidden;rotatable=0;points=[[0,0.5],[1,0.5]];portConstraint=eastwest;whiteSpace=wrap;html=1;" parent="kHN6MsCyqRyvkHSUbOPT-25" vertex="1">
          <mxGeometry y="26" width="170" height="26" as="geometry" />
        </mxCell>
        <mxCell id="kHN6MsCyqRyvkHSUbOPT-27" value="+ get_image()" style="text;strokeColor=none;fillColor=none;align=left;verticalAlign=top;spacingLeft=4;spacingRight=4;overflow=hidden;rotatable=0;points=[[0,0.5],[1,0.5]];portConstraint=eastwest;whiteSpace=wrap;html=1;" parent="kHN6MsCyqRyvkHSUbOPT-25" vertex="1">
          <mxGeometry y="52" width="170" height="26" as="geometry" />
        </mxCell>
        <mxCell id="kHN6MsCyqRyvkHSUbOPT-28" value="+ set_params()" style="text;strokeColor=none;fillColor=none;align=left;verticalAlign=top;spacingLeft=4;spacingRight=4;overflow=hidden;rotatable=0;points=[[0,0.5],[1,0.5]];portConstraint=eastwest;whiteSpace=wrap;html=1;" parent="kHN6MsCyqRyvkHSUbOPT-25" vertex="1">
          <mxGeometry y="78" width="170" height="26" as="geometry" />
        </mxCell>
        <mxCell id="kHN6MsCyqRyvkHSUbOPT-29" value="ImageLoaderViewBase" style="swimlane;fontStyle=0;childLayout=stackLayout;horizontal=1;startSize=26;fillColor=none;horizontalStack=0;resizeParent=1;resizeParentMax=0;resizeLast=0;collapsible=1;marginBottom=0;whiteSpace=wrap;html=1;" parent="1" vertex="1">
          <mxGeometry x="-890" y="510" width="170" height="104" as="geometry" />
        </mxCell>
        <mxCell id="kHN6MsCyqRyvkHSUbOPT-30" value="+ load_from_path(path)" style="text;strokeColor=none;fillColor=none;align=left;verticalAlign=top;spacingLeft=4;spacingRight=4;overflow=hidden;rotatable=0;points=[[0,0.5],[1,0.5]];portConstraint=eastwest;whiteSpace=wrap;html=1;" parent="kHN6MsCyqRyvkHSUbOPT-29" vertex="1">
          <mxGeometry y="26" width="170" height="26" as="geometry" />
        </mxCell>
        <mxCell id="kHN6MsCyqRyvkHSUbOPT-31" value="+ get_image()" style="text;strokeColor=none;fillColor=none;align=left;verticalAlign=top;spacingLeft=4;spacingRight=4;overflow=hidden;rotatable=0;points=[[0,0.5],[1,0.5]];portConstraint=eastwest;whiteSpace=wrap;html=1;" parent="kHN6MsCyqRyvkHSUbOPT-29" vertex="1">
          <mxGeometry y="52" width="170" height="26" as="geometry" />
        </mxCell>
        <mxCell id="kHN6MsCyqRyvkHSUbOPT-32" value="+ set_params()" style="text;strokeColor=none;fillColor=none;align=left;verticalAlign=top;spacingLeft=4;spacingRight=4;overflow=hidden;rotatable=0;points=[[0,0.5],[1,0.5]];portConstraint=eastwest;whiteSpace=wrap;html=1;" parent="kHN6MsCyqRyvkHSUbOPT-29" vertex="1">
          <mxGeometry y="78" width="170" height="26" as="geometry" />
        </mxCell>
        <mxCell id="kHN6MsCyqRyvkHSUbOPT-33" value="MainWindowView" style="swimlane;fontStyle=0;childLayout=stackLayout;horizontal=1;startSize=26;fillColor=none;horizontalStack=0;resizeParent=1;resizeParentMax=0;resizeLast=0;collapsible=1;marginBottom=0;whiteSpace=wrap;html=1;" parent="1" vertex="1">
          <mxGeometry x="-1230" y="970" width="170" height="130" as="geometry" />
        </mxCell>
        <mxCell id="kHN6MsCyqRyvkHSUbOPT-34" value="+ open_image_signal()" style="text;strokeColor=none;fillColor=none;align=left;verticalAlign=top;spacingLeft=4;spacingRight=4;overflow=hidden;rotatable=0;points=[[0,0.5],[1,0.5]];portConstraint=eastwest;whiteSpace=wrap;html=1;" parent="kHN6MsCyqRyvkHSUbOPT-33" vertex="1">
          <mxGeometry y="26" width="170" height="26" as="geometry" />
        </mxCell>
        <mxCell id="kHN6MsCyqRyvkHSUbOPT-35" value="+ get_image()" style="text;strokeColor=none;fillColor=none;align=left;verticalAlign=top;spacingLeft=4;spacingRight=4;overflow=hidden;rotatable=0;points=[[0,0.5],[1,0.5]];portConstraint=eastwest;whiteSpace=wrap;html=1;" parent="kHN6MsCyqRyvkHSUbOPT-33" vertex="1">
          <mxGeometry y="52" width="170" height="26" as="geometry" />
        </mxCell>
        <mxCell id="kHN6MsCyqRyvkHSUbOPT-36" value="+ set_params()" style="text;strokeColor=none;fillColor=none;align=left;verticalAlign=top;spacingLeft=4;spacingRight=4;overflow=hidden;rotatable=0;points=[[0,0.5],[1,0.5]];portConstraint=eastwest;whiteSpace=wrap;html=1;" parent="kHN6MsCyqRyvkHSUbOPT-33" vertex="1">
          <mxGeometry y="78" width="170" height="26" as="geometry" />
        </mxCell>
        <mxCell id="kHN6MsCyqRyvkHSUbOPT-60" value="+ image_displayer" style="text;strokeColor=none;fillColor=none;align=left;verticalAlign=top;spacingLeft=4;spacingRight=4;overflow=hidden;rotatable=0;points=[[0,0.5],[1,0.5]];portConstraint=eastwest;whiteSpace=wrap;html=1;" parent="kHN6MsCyqRyvkHSUbOPT-33" vertex="1">
          <mxGeometry y="104" width="170" height="26" as="geometry" />
        </mxCell>
        <mxCell id="kHN6MsCyqRyvkHSUbOPT-37" value="MainWindowContoller" style="swimlane;fontStyle=0;childLayout=stackLayout;horizontal=1;startSize=26;fillColor=none;horizontalStack=0;resizeParent=1;resizeParentMax=0;resizeLast=0;collapsible=1;marginBottom=0;whiteSpace=wrap;html=1;" parent="1" vertex="1">
          <mxGeometry x="-1230" y="830" width="170" height="104" as="geometry" />
        </mxCell>
        <mxCell id="kHN6MsCyqRyvkHSUbOPT-38" value="+ open_image_slot()" style="text;strokeColor=none;fillColor=none;align=left;verticalAlign=top;spacingLeft=4;spacingRight=4;overflow=hidden;rotatable=0;points=[[0,0.5],[1,0.5]];portConstraint=eastwest;whiteSpace=wrap;html=1;" parent="kHN6MsCyqRyvkHSUbOPT-37" vertex="1">
          <mxGeometry y="26" width="170" height="26" as="geometry" />
        </mxCell>
        <mxCell id="kHN6MsCyqRyvkHSUbOPT-39" value="+ get_image()" style="text;strokeColor=none;fillColor=none;align=left;verticalAlign=top;spacingLeft=4;spacingRight=4;overflow=hidden;rotatable=0;points=[[0,0.5],[1,0.5]];portConstraint=eastwest;whiteSpace=wrap;html=1;" parent="kHN6MsCyqRyvkHSUbOPT-37" vertex="1">
          <mxGeometry y="52" width="170" height="26" as="geometry" />
        </mxCell>
        <mxCell id="kHN6MsCyqRyvkHSUbOPT-40" value="+ set_params()" style="text;strokeColor=none;fillColor=none;align=left;verticalAlign=top;spacingLeft=4;spacingRight=4;overflow=hidden;rotatable=0;points=[[0,0.5],[1,0.5]];portConstraint=eastwest;whiteSpace=wrap;html=1;" parent="kHN6MsCyqRyvkHSUbOPT-37" vertex="1">
          <mxGeometry y="78" width="170" height="26" as="geometry" />
        </mxCell>
        <mxCell id="kHN6MsCyqRyvkHSUbOPT-41" value="MainWindowModel" style="swimlane;fontStyle=0;childLayout=stackLayout;horizontal=1;startSize=26;fillColor=none;horizontalStack=0;resizeParent=1;resizeParentMax=0;resizeLast=0;collapsible=1;marginBottom=0;whiteSpace=wrap;html=1;" parent="1" vertex="1">
          <mxGeometry x="-1230" y="1200" width="170" height="78" as="geometry" />
        </mxCell>
        <mxCell id="kHN6MsCyqRyvkHSUbOPT-43" value="+ get_image()" style="text;strokeColor=none;fillColor=none;align=left;verticalAlign=top;spacingLeft=4;spacingRight=4;overflow=hidden;rotatable=0;points=[[0,0.5],[1,0.5]];portConstraint=eastwest;whiteSpace=wrap;html=1;" parent="kHN6MsCyqRyvkHSUbOPT-41" vertex="1">
          <mxGeometry y="26" width="170" height="26" as="geometry" />
        </mxCell>
        <mxCell id="kHN6MsCyqRyvkHSUbOPT-44" value="+ set_params()" style="text;strokeColor=none;fillColor=none;align=left;verticalAlign=top;spacingLeft=4;spacingRight=4;overflow=hidden;rotatable=0;points=[[0,0.5],[1,0.5]];portConstraint=eastwest;whiteSpace=wrap;html=1;" parent="kHN6MsCyqRyvkHSUbOPT-41" vertex="1">
          <mxGeometry y="52" width="170" height="26" as="geometry" />
        </mxCell>
        <mxCell id="kHN6MsCyqRyvkHSUbOPT-46" style="edgeStyle=orthogonalEdgeStyle;rounded=0;orthogonalLoop=1;jettySize=auto;html=1;entryX=0;entryY=0.5;entryDx=0;entryDy=0;" parent="1" source="kHN6MsCyqRyvkHSUbOPT-34" target="kHN6MsCyqRyvkHSUbOPT-38" edge="1">
          <mxGeometry relative="1" as="geometry" />
        </mxCell>
        <mxCell id="kHN6MsCyqRyvkHSUbOPT-51" value="ImageHandler" style="swimlane;fontStyle=0;childLayout=stackLayout;horizontal=1;startSize=26;fillColor=none;horizontalStack=0;resizeParent=1;resizeParentMax=0;resizeLast=0;collapsible=1;marginBottom=0;whiteSpace=wrap;html=1;" parent="1" vertex="1">
          <mxGeometry x="-840" y="730" width="200" height="78" as="geometry" />
        </mxCell>
        <mxCell id="kHN6MsCyqRyvkHSUbOPT-53" value="+ set_image(QImage)" style="text;strokeColor=none;fillColor=none;align=left;verticalAlign=top;spacingLeft=4;spacingRight=4;overflow=hidden;rotatable=0;points=[[0,0.5],[1,0.5]];portConstraint=eastwest;whiteSpace=wrap;html=1;" parent="kHN6MsCyqRyvkHSUbOPT-51" vertex="1">
          <mxGeometry y="26" width="200" height="26" as="geometry" />
        </mxCell>
        <mxCell id="kHN6MsCyqRyvkHSUbOPT-62" value="+ get_image_ARGB() -&amp;gt; QImage" style="text;strokeColor=none;fillColor=none;align=left;verticalAlign=top;spacingLeft=4;spacingRight=4;overflow=hidden;rotatable=0;points=[[0,0.5],[1,0.5]];portConstraint=eastwest;whiteSpace=wrap;html=1;" parent="kHN6MsCyqRyvkHSUbOPT-51" vertex="1">
          <mxGeometry y="52" width="200" height="26" as="geometry" />
        </mxCell>
        <mxCell id="kHN6MsCyqRyvkHSUbOPT-59" style="edgeStyle=orthogonalEdgeStyle;rounded=0;orthogonalLoop=1;jettySize=auto;html=1;jumpStyle=arc;jumpSize=12;dashed=1;" parent="1" source="kHN6MsCyqRyvkHSUbOPT-38" target="kHN6MsCyqRyvkHSUbOPT-53" edge="1">
          <mxGeometry relative="1" as="geometry">
            <Array as="points">
              <mxPoint x="-1030" y="869" />
              <mxPoint x="-1030" y="769" />
            </Array>
          </mxGeometry>
        </mxCell>
        <mxCell id="kHN6MsCyqRyvkHSUbOPT-61" style="edgeStyle=orthogonalEdgeStyle;rounded=0;orthogonalLoop=1;jettySize=auto;html=1;entryX=0.5;entryY=0;entryDx=0;entryDy=0;jumpStyle=arc;jumpSize=12;" parent="1" source="kHN6MsCyqRyvkHSUbOPT-60" target="kHN6MsCyqRyvkHSUbOPT-51" edge="1">
          <mxGeometry relative="1" as="geometry" />
        </mxCell>
        <mxCell id="kHN6MsCyqRyvkHSUbOPT-63" value="ImageDisplayer" style="swimlane;fontStyle=0;childLayout=stackLayout;horizontal=1;startSize=26;fillColor=none;horizontalStack=0;resizeParent=1;resizeParentMax=0;resizeLast=0;collapsible=1;marginBottom=0;whiteSpace=wrap;html=1;" parent="1" vertex="1">
          <mxGeometry x="-730" y="910" width="200" height="78" as="geometry" />
        </mxCell>
        <mxCell id="kHN6MsCyqRyvkHSUbOPT-64" value="+ set_image(QImage)" style="text;strokeColor=none;fillColor=none;align=left;verticalAlign=top;spacingLeft=4;spacingRight=4;overflow=hidden;rotatable=0;points=[[0,0.5],[1,0.5]];portConstraint=eastwest;whiteSpace=wrap;html=1;" parent="kHN6MsCyqRyvkHSUbOPT-63" vertex="1">
          <mxGeometry y="26" width="200" height="26" as="geometry" />
        </mxCell>
        <mxCell id="kHN6MsCyqRyvkHSUbOPT-65" value="+ get_image_ARGB() -&amp;gt; QImage" style="text;strokeColor=none;fillColor=none;align=left;verticalAlign=top;spacingLeft=4;spacingRight=4;overflow=hidden;rotatable=0;points=[[0,0.5],[1,0.5]];portConstraint=eastwest;whiteSpace=wrap;html=1;" parent="kHN6MsCyqRyvkHSUbOPT-63" vertex="1">
          <mxGeometry y="52" width="200" height="26" as="geometry" />
        </mxCell>
        <mxCell id="kHN6MsCyqRyvkHSUbOPT-67" value="Модуль генерации команд для распечатки картинки (Абстрактно?)" style="swimlane;whiteSpace=wrap;html=1;fontFamily=Helvetica;fontSize=11;fontColor=default;labelBackgroundColor=default;startSize=23;" parent="1" vertex="1">
          <mxGeometry x="2860" y="370" width="1820" height="1220" as="geometry" />
        </mxCell>
        <mxCell id="kHN6MsCyqRyvkHSUbOPT-68" value="&lt;div&gt;&lt;ol&gt;&lt;li&gt;кликнуть мышью (с вариациями)&lt;/li&gt;&lt;li&gt;зажать мышь&lt;/li&gt;&lt;li&gt;отжать мышь&lt;/li&gt;&lt;li&gt;сдвинуть мышь&lt;/li&gt;&lt;li&gt;сбросить состояние мыши?&lt;/li&gt;&lt;/ol&gt;&lt;/div&gt;" style="rounded=0;whiteSpace=wrap;html=1;fontFamily=Helvetica;fontSize=11;fontColor=default;labelBackgroundColor=default;align=left;" parent="kHN6MsCyqRyvkHSUbOPT-67" vertex="1">
          <mxGeometry x="220" y="30" width="220" height="93" as="geometry" />
        </mxCell>
        <mxCell id="BKKUUPH9oP-g0jZoV5C_-103" value="Command" style="swimlane;fontStyle=0;childLayout=stackLayout;horizontal=1;startSize=30;fillColor=none;horizontalStack=0;resizeParent=1;resizeParentMax=0;resizeLast=0;collapsible=1;marginBottom=0;whiteSpace=wrap;html=1;rounded=0;strokeColor=default;align=center;verticalAlign=middle;fontFamily=Helvetica;fontSize=11;fontColor=default;labelBackgroundColor=none;" vertex="1" parent="kHN6MsCyqRyvkHSUbOPT-67">
          <mxGeometry x="20" y="240" width="180" height="82" as="geometry" />
        </mxCell>
        <mxCell id="BKKUUPH9oP-g0jZoV5C_-106" value="is_checkpointable_moment:bool" style="text;strokeColor=none;fillColor=none;align=left;verticalAlign=top;spacingLeft=4;spacingRight=4;overflow=hidden;rotatable=0;points=[[0,0.5],[1,0.5]];portConstraint=eastwest;whiteSpace=wrap;html=1;fontFamily=Helvetica;fontSize=11;fontColor=default;fontStyle=0;labelBackgroundColor=none;horizontal=1;" vertex="1" parent="BKKUUPH9oP-g0jZoV5C_-103">
          <mxGeometry y="30" width="180" height="26" as="geometry" />
        </mxCell>
        <mxCell id="BKKUUPH9oP-g0jZoV5C_-181" style="text;strokeColor=none;fillColor=none;align=left;verticalAlign=top;spacingLeft=4;spacingRight=4;overflow=hidden;rotatable=0;points=[[0,0.5],[1,0.5]];portConstraint=eastwest;whiteSpace=wrap;html=1;fontFamily=Helvetica;fontSize=11;fontColor=default;fontStyle=0;labelBackgroundColor=none;horizontal=1;" vertex="1" parent="BKKUUPH9oP-g0jZoV5C_-103">
          <mxGeometry y="56" width="180" height="26" as="geometry" />
        </mxCell>
        <mxCell id="BKKUUPH9oP-g0jZoV5C_-137" style="edgeStyle=orthogonalEdgeStyle;shape=connector;rounded=0;jumpStyle=arc;jumpSize=12;orthogonalLoop=1;jettySize=auto;html=1;strokeColor=default;align=center;verticalAlign=middle;fontFamily=Helvetica;fontSize=11;fontColor=default;labelBackgroundColor=default;endArrow=block;endFill=1;endSize=13;" edge="1" parent="kHN6MsCyqRyvkHSUbOPT-67" source="BKKUUPH9oP-g0jZoV5C_-114" target="BKKUUPH9oP-g0jZoV5C_-103">
          <mxGeometry relative="1" as="geometry" />
        </mxCell>
        <mxCell id="BKKUUPH9oP-g0jZoV5C_-114" value="ClickMouse" style="swimlane;fontStyle=0;childLayout=stackLayout;horizontal=1;startSize=30;fillColor=none;horizontalStack=0;resizeParent=1;resizeParentMax=0;resizeLast=0;collapsible=1;marginBottom=0;whiteSpace=wrap;html=1;rounded=0;strokeColor=default;align=center;verticalAlign=middle;fontFamily=Helvetica;fontSize=11;fontColor=default;labelBackgroundColor=none;" vertex="1" parent="kHN6MsCyqRyvkHSUbOPT-67">
          <mxGeometry x="240" y="140" width="140" height="108" as="geometry" />
        </mxCell>
        <mxCell id="BKKUUPH9oP-g0jZoV5C_-115" value="+ key_code" style="text;strokeColor=none;fillColor=none;align=left;verticalAlign=top;spacingLeft=4;spacingRight=4;overflow=hidden;rotatable=0;points=[[0,0.5],[1,0.5]];portConstraint=eastwest;whiteSpace=wrap;html=1;fontFamily=Helvetica;fontSize=11;fontColor=default;fontStyle=0;labelBackgroundColor=none;horizontal=1;" vertex="1" parent="BKKUUPH9oP-g0jZoV5C_-114">
          <mxGeometry y="30" width="140" height="26" as="geometry" />
        </mxCell>
        <mxCell id="BKKUUPH9oP-g0jZoV5C_-116" value="+ pos_x" style="text;strokeColor=none;fillColor=none;align=left;verticalAlign=top;spacingLeft=4;spacingRight=4;overflow=hidden;rotatable=0;points=[[0,0.5],[1,0.5]];portConstraint=eastwest;whiteSpace=wrap;html=1;fontFamily=Helvetica;fontSize=11;fontColor=default;fontStyle=0;labelBackgroundColor=none;horizontal=1;" vertex="1" parent="BKKUUPH9oP-g0jZoV5C_-114">
          <mxGeometry y="56" width="140" height="26" as="geometry" />
        </mxCell>
        <mxCell id="BKKUUPH9oP-g0jZoV5C_-117" value="+ pos_y" style="text;strokeColor=none;fillColor=none;align=left;verticalAlign=top;spacingLeft=4;spacingRight=4;overflow=hidden;rotatable=0;points=[[0,0.5],[1,0.5]];portConstraint=eastwest;whiteSpace=wrap;html=1;fontFamily=Helvetica;fontSize=11;fontColor=default;fontStyle=0;labelBackgroundColor=none;horizontal=1;" vertex="1" parent="BKKUUPH9oP-g0jZoV5C_-114">
          <mxGeometry y="82" width="140" height="26" as="geometry" />
        </mxCell>
        <mxCell id="BKKUUPH9oP-g0jZoV5C_-135" style="edgeStyle=orthogonalEdgeStyle;shape=connector;rounded=0;jumpStyle=arc;jumpSize=12;orthogonalLoop=1;jettySize=auto;html=1;strokeColor=default;align=center;verticalAlign=middle;fontFamily=Helvetica;fontSize=11;fontColor=default;labelBackgroundColor=default;endArrow=block;endFill=1;endSize=13;" edge="1" parent="kHN6MsCyqRyvkHSUbOPT-67" source="BKKUUPH9oP-g0jZoV5C_-122" target="BKKUUPH9oP-g0jZoV5C_-103">
          <mxGeometry relative="1" as="geometry" />
        </mxCell>
        <mxCell id="BKKUUPH9oP-g0jZoV5C_-122" value="ReleaseMouse" style="swimlane;fontStyle=0;childLayout=stackLayout;horizontal=1;startSize=30;fillColor=none;horizontalStack=0;resizeParent=1;resizeParentMax=0;resizeLast=0;collapsible=1;marginBottom=0;whiteSpace=wrap;html=1;rounded=0;strokeColor=default;align=center;verticalAlign=middle;fontFamily=Helvetica;fontSize=11;fontColor=default;labelBackgroundColor=none;" vertex="1" parent="kHN6MsCyqRyvkHSUbOPT-67">
          <mxGeometry x="40" y="110" width="140" height="56" as="geometry" />
        </mxCell>
        <mxCell id="BKKUUPH9oP-g0jZoV5C_-125" value="+ key_code" style="text;strokeColor=none;fillColor=none;align=left;verticalAlign=top;spacingLeft=4;spacingRight=4;overflow=hidden;rotatable=0;points=[[0,0.5],[1,0.5]];portConstraint=eastwest;whiteSpace=wrap;html=1;fontFamily=Helvetica;fontSize=11;fontColor=default;fontStyle=0;labelBackgroundColor=none;horizontal=1;" vertex="1" parent="BKKUUPH9oP-g0jZoV5C_-122">
          <mxGeometry y="30" width="140" height="26" as="geometry" />
        </mxCell>
        <mxCell id="BKKUUPH9oP-g0jZoV5C_-134" style="edgeStyle=orthogonalEdgeStyle;shape=connector;rounded=0;jumpStyle=arc;jumpSize=12;orthogonalLoop=1;jettySize=auto;html=1;strokeColor=default;align=center;verticalAlign=middle;fontFamily=Helvetica;fontSize=11;fontColor=default;labelBackgroundColor=default;endArrow=block;endFill=1;endSize=13;" edge="1" parent="kHN6MsCyqRyvkHSUbOPT-67" source="BKKUUPH9oP-g0jZoV5C_-130" target="BKKUUPH9oP-g0jZoV5C_-103">
          <mxGeometry relative="1" as="geometry" />
        </mxCell>
        <mxCell id="BKKUUPH9oP-g0jZoV5C_-130" value="MoveMouse" style="swimlane;fontStyle=0;childLayout=stackLayout;horizontal=1;startSize=30;fillColor=none;horizontalStack=0;resizeParent=1;resizeParentMax=0;resizeLast=0;collapsible=1;marginBottom=0;whiteSpace=wrap;html=1;rounded=0;strokeColor=default;align=center;verticalAlign=middle;fontFamily=Helvetica;fontSize=11;fontColor=default;labelBackgroundColor=none;" vertex="1" parent="kHN6MsCyqRyvkHSUbOPT-67">
          <mxGeometry x="240" y="400" width="140" height="82" as="geometry" />
        </mxCell>
        <mxCell id="BKKUUPH9oP-g0jZoV5C_-132" value="+ pos_x" style="text;strokeColor=none;fillColor=none;align=left;verticalAlign=top;spacingLeft=4;spacingRight=4;overflow=hidden;rotatable=0;points=[[0,0.5],[1,0.5]];portConstraint=eastwest;whiteSpace=wrap;html=1;fontFamily=Helvetica;fontSize=11;fontColor=default;fontStyle=0;labelBackgroundColor=none;horizontal=1;" vertex="1" parent="BKKUUPH9oP-g0jZoV5C_-130">
          <mxGeometry y="30" width="140" height="26" as="geometry" />
        </mxCell>
        <mxCell id="BKKUUPH9oP-g0jZoV5C_-133" value="+ pos_y" style="text;strokeColor=none;fillColor=none;align=left;verticalAlign=top;spacingLeft=4;spacingRight=4;overflow=hidden;rotatable=0;points=[[0,0.5],[1,0.5]];portConstraint=eastwest;whiteSpace=wrap;html=1;fontFamily=Helvetica;fontSize=11;fontColor=default;fontStyle=0;labelBackgroundColor=none;horizontal=1;" vertex="1" parent="BKKUUPH9oP-g0jZoV5C_-130">
          <mxGeometry y="56" width="140" height="26" as="geometry" />
        </mxCell>
        <mxCell id="BKKUUPH9oP-g0jZoV5C_-136" style="edgeStyle=orthogonalEdgeStyle;shape=connector;rounded=0;jumpStyle=arc;jumpSize=12;orthogonalLoop=1;jettySize=auto;html=1;strokeColor=default;align=center;verticalAlign=middle;fontFamily=Helvetica;fontSize=11;fontColor=default;labelBackgroundColor=default;endArrow=block;endFill=1;endSize=13;" edge="1" parent="kHN6MsCyqRyvkHSUbOPT-67" source="BKKUUPH9oP-g0jZoV5C_-118" target="BKKUUPH9oP-g0jZoV5C_-103">
          <mxGeometry relative="1" as="geometry" />
        </mxCell>
        <mxCell id="BKKUUPH9oP-g0jZoV5C_-118" value="PressMouse" style="swimlane;fontStyle=0;childLayout=stackLayout;horizontal=1;startSize=30;fillColor=none;horizontalStack=0;resizeParent=1;resizeParentMax=0;resizeLast=0;collapsible=1;marginBottom=0;whiteSpace=wrap;html=1;rounded=0;strokeColor=default;align=center;verticalAlign=middle;fontFamily=Helvetica;fontSize=11;fontColor=default;labelBackgroundColor=none;" vertex="1" parent="kHN6MsCyqRyvkHSUbOPT-67">
          <mxGeometry x="240" y="270" width="140" height="108" as="geometry" />
        </mxCell>
        <mxCell id="BKKUUPH9oP-g0jZoV5C_-119" value="+ key_code" style="text;strokeColor=none;fillColor=none;align=left;verticalAlign=top;spacingLeft=4;spacingRight=4;overflow=hidden;rotatable=0;points=[[0,0.5],[1,0.5]];portConstraint=eastwest;whiteSpace=wrap;html=1;fontFamily=Helvetica;fontSize=11;fontColor=default;fontStyle=0;labelBackgroundColor=none;horizontal=1;" vertex="1" parent="BKKUUPH9oP-g0jZoV5C_-118">
          <mxGeometry y="30" width="140" height="26" as="geometry" />
        </mxCell>
        <mxCell id="BKKUUPH9oP-g0jZoV5C_-120" value="+ pos_x" style="text;strokeColor=none;fillColor=none;align=left;verticalAlign=top;spacingLeft=4;spacingRight=4;overflow=hidden;rotatable=0;points=[[0,0.5],[1,0.5]];portConstraint=eastwest;whiteSpace=wrap;html=1;fontFamily=Helvetica;fontSize=11;fontColor=default;fontStyle=0;labelBackgroundColor=none;horizontal=1;" vertex="1" parent="BKKUUPH9oP-g0jZoV5C_-118">
          <mxGeometry y="56" width="140" height="26" as="geometry" />
        </mxCell>
        <mxCell id="BKKUUPH9oP-g0jZoV5C_-121" value="+ pos_y" style="text;strokeColor=none;fillColor=none;align=left;verticalAlign=top;spacingLeft=4;spacingRight=4;overflow=hidden;rotatable=0;points=[[0,0.5],[1,0.5]];portConstraint=eastwest;whiteSpace=wrap;html=1;fontFamily=Helvetica;fontSize=11;fontColor=default;fontStyle=0;labelBackgroundColor=none;horizontal=1;" vertex="1" parent="BKKUUPH9oP-g0jZoV5C_-118">
          <mxGeometry y="82" width="140" height="26" as="geometry" />
        </mxCell>
        <mxCell id="BKKUUPH9oP-g0jZoV5C_-138" value="CommandsGeneratorBase" style="swimlane;fontStyle=0;childLayout=stackLayout;horizontal=1;startSize=26;fillColor=none;horizontalStack=0;resizeParent=1;resizeParentMax=0;resizeLast=0;collapsible=1;marginBottom=0;whiteSpace=wrap;html=1;rounded=0;strokeColor=default;align=center;verticalAlign=middle;fontFamily=Helvetica;fontSize=11;fontColor=default;labelBackgroundColor=default;" vertex="1" parent="kHN6MsCyqRyvkHSUbOPT-67">
          <mxGeometry x="610" y="210" width="280" height="78" as="geometry" />
        </mxCell>
        <mxCell id="BKKUUPH9oP-g0jZoV5C_-139" value="+ process_image_object(ImageObject)" style="text;strokeColor=none;fillColor=none;align=left;verticalAlign=top;spacingLeft=4;spacingRight=4;overflow=hidden;rotatable=0;points=[[0,0.5],[1,0.5]];portConstraint=eastwest;whiteSpace=wrap;html=1;fontFamily=Helvetica;fontSize=11;fontColor=default;fontStyle=0;labelBackgroundColor=default;horizontal=1;" vertex="1" parent="BKKUUPH9oP-g0jZoV5C_-138">
          <mxGeometry y="26" width="280" height="26" as="geometry" />
        </mxCell>
        <mxCell id="BKKUUPH9oP-g0jZoV5C_-140" value="+ get_commands_iterator()" style="text;strokeColor=none;fillColor=none;align=left;verticalAlign=top;spacingLeft=4;spacingRight=4;overflow=hidden;rotatable=0;points=[[0,0.5],[1,0.5]];portConstraint=eastwest;whiteSpace=wrap;html=1;fontFamily=Helvetica;fontSize=11;fontColor=default;fontStyle=0;labelBackgroundColor=default;horizontal=1;" vertex="1" parent="BKKUUPH9oP-g0jZoV5C_-138">
          <mxGeometry y="52" width="280" height="26" as="geometry" />
        </mxCell>
        <mxCell id="BKKUUPH9oP-g0jZoV5C_-142" value="взять входной массив данных (обычно numpy) как основу для генерации команд" style="whiteSpace=wrap;html=1;rounded=0;strokeColor=default;align=center;verticalAlign=middle;fontFamily=Helvetica;fontSize=11;fontColor=default;fontStyle=0;labelBackgroundColor=default;horizontal=1;fillColor=none;" vertex="1" parent="kHN6MsCyqRyvkHSUbOPT-67">
          <mxGeometry x="1050" y="198.5" width="210" height="101" as="geometry" />
        </mxCell>
        <mxCell id="BKKUUPH9oP-g0jZoV5C_-144" style="edgeStyle=orthogonalEdgeStyle;shape=connector;rounded=0;orthogonalLoop=1;jettySize=auto;html=1;strokeColor=default;align=center;verticalAlign=middle;fontFamily=Helvetica;fontSize=11;fontColor=default;fontStyle=0;labelBackgroundColor=default;resizable=0;endArrow=classic;" edge="1" parent="kHN6MsCyqRyvkHSUbOPT-67" source="BKKUUPH9oP-g0jZoV5C_-139" target="BKKUUPH9oP-g0jZoV5C_-142">
          <mxGeometry relative="1" as="geometry" />
        </mxCell>
        <mxCell id="BKKUUPH9oP-g0jZoV5C_-176" value="CommandsGeneratorIntensivity" style="swimlane;fontStyle=0;childLayout=stackLayout;horizontal=1;startSize=26;fillColor=none;horizontalStack=0;resizeParent=1;resizeParentMax=0;resizeLast=0;collapsible=1;marginBottom=0;whiteSpace=wrap;html=1;rounded=0;strokeColor=default;align=center;verticalAlign=middle;fontFamily=Helvetica;fontSize=11;fontColor=default;labelBackgroundColor=default;" vertex="1" parent="kHN6MsCyqRyvkHSUbOPT-67">
          <mxGeometry x="730" y="378" width="280" height="78" as="geometry" />
        </mxCell>
        <mxCell id="BKKUUPH9oP-g0jZoV5C_-177" value="+ process_image_object(ImageObject)" style="text;strokeColor=none;fillColor=none;align=left;verticalAlign=top;spacingLeft=4;spacingRight=4;overflow=hidden;rotatable=0;points=[[0,0.5],[1,0.5]];portConstraint=eastwest;whiteSpace=wrap;html=1;fontFamily=Helvetica;fontSize=11;fontColor=default;fontStyle=0;labelBackgroundColor=default;horizontal=1;" vertex="1" parent="BKKUUPH9oP-g0jZoV5C_-176">
          <mxGeometry y="26" width="280" height="26" as="geometry" />
        </mxCell>
        <mxCell id="BKKUUPH9oP-g0jZoV5C_-178" value="+ get_commands_iterator()" style="text;strokeColor=none;fillColor=none;align=left;verticalAlign=top;spacingLeft=4;spacingRight=4;overflow=hidden;rotatable=0;points=[[0,0.5],[1,0.5]];portConstraint=eastwest;whiteSpace=wrap;html=1;fontFamily=Helvetica;fontSize=11;fontColor=default;fontStyle=0;labelBackgroundColor=default;horizontal=1;" vertex="1" parent="BKKUUPH9oP-g0jZoV5C_-176">
          <mxGeometry y="52" width="280" height="26" as="geometry" />
        </mxCell>
        <mxCell id="BKKUUPH9oP-g0jZoV5C_-179" value="Пробегаемся по каждому пикселу, если интенсивность высокая, тогда Click, например. " style="whiteSpace=wrap;html=1;rounded=0;strokeColor=default;align=center;verticalAlign=middle;fontFamily=Helvetica;fontSize=11;fontColor=default;fontStyle=0;labelBackgroundColor=default;horizontal=1;fillColor=none;" vertex="1" parent="kHN6MsCyqRyvkHSUbOPT-67">
          <mxGeometry x="1130" y="366.5" width="210" height="101" as="geometry" />
        </mxCell>
        <mxCell id="BKKUUPH9oP-g0jZoV5C_-180" style="edgeStyle=orthogonalEdgeStyle;shape=connector;rounded=0;orthogonalLoop=1;jettySize=auto;html=1;strokeColor=default;align=center;verticalAlign=middle;fontFamily=Helvetica;fontSize=11;fontColor=default;fontStyle=0;labelBackgroundColor=default;resizable=0;endArrow=classic;" edge="1" parent="kHN6MsCyqRyvkHSUbOPT-67" source="BKKUUPH9oP-g0jZoV5C_-177" target="BKKUUPH9oP-g0jZoV5C_-179">
          <mxGeometry relative="1" as="geometry" />
        </mxCell>
        <mxCell id="kHN6MsCyqRyvkHSUbOPT-84" value="Модуль виджетов для параметризации " style="swimlane;whiteSpace=wrap;html=1;fontFamily=Helvetica;fontSize=11;fontColor=default;labelBackgroundColor=default;startSize=23;align=left;" parent="1" vertex="1">
          <mxGeometry x="1170" y="447" width="1090" height="573" as="geometry" />
        </mxCell>
        <mxCell id="kHN6MsCyqRyvkHSUbOPT-86" value="ParamsController" style="swimlane;fontStyle=0;childLayout=stackLayout;horizontal=1;startSize=26;fillColor=none;horizontalStack=0;resizeParent=1;resizeParentMax=0;resizeLast=0;collapsible=1;marginBottom=0;whiteSpace=wrap;html=1;fontFamily=Helvetica;fontSize=11;fontColor=default;labelBackgroundColor=default;" parent="kHN6MsCyqRyvkHSUbOPT-84" vertex="1">
          <mxGeometry x="360" y="50" width="214" height="340" as="geometry" />
        </mxCell>
        <mxCell id="kHN6MsCyqRyvkHSUbOPT-87" value="+ __init__() -&amp;gt; создаём view и model?" style="text;strokeColor=none;fillColor=none;align=left;verticalAlign=top;spacingLeft=4;spacingRight=4;overflow=hidden;rotatable=0;points=[[0,0.5],[1,0.5]];portConstraint=eastwest;whiteSpace=wrap;html=1;fontFamily=Helvetica;fontSize=11;fontColor=default;labelBackgroundColor=default;" parent="kHN6MsCyqRyvkHSUbOPT-86" vertex="1">
          <mxGeometry y="26" width="214" height="26" as="geometry" />
        </mxCell>
        <mxCell id="kHN6MsCyqRyvkHSUbOPT-105" value="+ params_updated_slot() -&amp;gt; при любом изменении параметров надо записать данные по ним" style="text;strokeColor=none;fillColor=none;align=left;verticalAlign=top;spacingLeft=4;spacingRight=4;overflow=hidden;rotatable=0;points=[[0,0.5],[1,0.5]];portConstraint=eastwest;whiteSpace=wrap;html=1;fontFamily=Helvetica;fontSize=11;fontColor=default;labelBackgroundColor=default;" parent="kHN6MsCyqRyvkHSUbOPT-86" vertex="1">
          <mxGeometry y="52" width="214" height="58" as="geometry" />
        </mxCell>
        <mxCell id="kHN6MsCyqRyvkHSUbOPT-106" value="+ params_applyied_signal() -&amp;gt; при сохранении&amp;nbsp; парметров будем уведомлять" style="text;strokeColor=none;fillColor=none;align=left;verticalAlign=top;spacingLeft=4;spacingRight=4;overflow=hidden;rotatable=0;points=[[0,0.5],[1,0.5]];portConstraint=eastwest;whiteSpace=wrap;html=1;fontFamily=Helvetica;fontSize=11;fontColor=default;labelBackgroundColor=default;" parent="kHN6MsCyqRyvkHSUbOPT-86" vertex="1">
          <mxGeometry y="110" width="214" height="60" as="geometry" />
        </mxCell>
        <mxCell id="kHN6MsCyqRyvkHSUbOPT-108" value="+ build_view(ParamsSchemeBase) = строим view на основе json схемы" style="text;strokeColor=none;fillColor=none;align=left;verticalAlign=top;spacingLeft=4;spacingRight=4;overflow=hidden;rotatable=0;points=[[0,0.5],[1,0.5]];portConstraint=eastwest;whiteSpace=wrap;html=1;fontFamily=Helvetica;fontSize=11;fontColor=default;labelBackgroundColor=default;" parent="kHN6MsCyqRyvkHSUbOPT-86" vertex="1">
          <mxGeometry y="170" width="214" height="40" as="geometry" />
        </mxCell>
        <mxCell id="kHN6MsCyqRyvkHSUbOPT-109" value="View" style="text;strokeColor=none;fillColor=none;align=left;verticalAlign=top;spacingLeft=4;spacingRight=4;overflow=hidden;rotatable=0;points=[[0,0.5],[1,0.5]];portConstraint=eastwest;whiteSpace=wrap;html=1;fontFamily=Helvetica;fontSize=11;fontColor=default;labelBackgroundColor=default;" parent="kHN6MsCyqRyvkHSUbOPT-86" vertex="1">
          <mxGeometry y="210" width="214" height="30" as="geometry" />
        </mxCell>
        <mxCell id="kHN6MsCyqRyvkHSUbOPT-111" value="Model" style="text;strokeColor=none;fillColor=none;align=left;verticalAlign=top;spacingLeft=4;spacingRight=4;overflow=hidden;rotatable=0;points=[[0,0.5],[1,0.5]];portConstraint=eastwest;whiteSpace=wrap;html=1;fontFamily=Helvetica;fontSize=11;fontColor=default;labelBackgroundColor=default;" parent="kHN6MsCyqRyvkHSUbOPT-86" vertex="1">
          <mxGeometry y="240" width="214" height="30" as="geometry" />
        </mxCell>
        <mxCell id="kHN6MsCyqRyvkHSUbOPT-353" value="+ get_params_scheme() -&amp;gt; ParamsSchemeBase (извлекаем из модели?)" style="text;strokeColor=none;fillColor=none;align=left;verticalAlign=top;spacingLeft=4;spacingRight=4;overflow=hidden;rotatable=0;points=[[0,0.5],[1,0.5]];portConstraint=eastwest;whiteSpace=wrap;html=1;fontFamily=Helvetica;fontSize=11;fontColor=default;labelBackgroundColor=default;" parent="kHN6MsCyqRyvkHSUbOPT-86" vertex="1">
          <mxGeometry y="270" width="214" height="70" as="geometry" />
        </mxCell>
        <mxCell id="kHN6MsCyqRyvkHSUbOPT-93" value="ParamsView" style="swimlane;fontStyle=0;childLayout=stackLayout;horizontal=1;startSize=26;fillColor=none;horizontalStack=0;resizeParent=1;resizeParentMax=0;resizeLast=0;collapsible=1;marginBottom=0;whiteSpace=wrap;html=1;fontFamily=Helvetica;fontSize=11;fontColor=default;labelBackgroundColor=default;" parent="kHN6MsCyqRyvkHSUbOPT-84" vertex="1">
          <mxGeometry x="710" y="303" width="214" height="78" as="geometry" />
        </mxCell>
        <mxCell id="kHN6MsCyqRyvkHSUbOPT-94" value="+ param_updated_signal()" style="text;strokeColor=none;fillColor=none;align=left;verticalAlign=top;spacingLeft=4;spacingRight=4;overflow=hidden;rotatable=0;points=[[0,0.5],[1,0.5]];portConstraint=eastwest;whiteSpace=wrap;html=1;fontFamily=Helvetica;fontSize=11;fontColor=default;labelBackgroundColor=default;" parent="kHN6MsCyqRyvkHSUbOPT-93" vertex="1">
          <mxGeometry y="26" width="214" height="26" as="geometry" />
        </mxCell>
        <mxCell id="kHN6MsCyqRyvkHSUbOPT-113" value="+ apply_params_signal()" style="text;strokeColor=none;fillColor=none;align=left;verticalAlign=top;spacingLeft=4;spacingRight=4;overflow=hidden;rotatable=0;points=[[0,0.5],[1,0.5]];portConstraint=eastwest;whiteSpace=wrap;html=1;fontFamily=Helvetica;fontSize=11;fontColor=default;labelBackgroundColor=default;" parent="kHN6MsCyqRyvkHSUbOPT-93" vertex="1">
          <mxGeometry y="52" width="214" height="26" as="geometry" />
        </mxCell>
        <mxCell id="kHN6MsCyqRyvkHSUbOPT-99" value="ParamsModel" style="swimlane;fontStyle=0;childLayout=stackLayout;horizontal=1;startSize=26;fillColor=none;horizontalStack=0;resizeParent=1;resizeParentMax=0;resizeLast=0;collapsible=1;marginBottom=0;whiteSpace=wrap;html=1;fontFamily=Helvetica;fontSize=11;fontColor=default;labelBackgroundColor=default;" parent="kHN6MsCyqRyvkHSUbOPT-84" vertex="1">
          <mxGeometry x="800" y="90" width="214" height="116" as="geometry" />
        </mxCell>
        <mxCell id="kHN6MsCyqRyvkHSUbOPT-352" value="ParamsSchemeBase" style="text;strokeColor=none;fillColor=none;align=left;verticalAlign=top;spacingLeft=4;spacingRight=4;overflow=hidden;rotatable=0;points=[[0,0.5],[1,0.5]];portConstraint=eastwest;whiteSpace=wrap;html=1;fontFamily=Helvetica;fontSize=11;fontColor=default;labelBackgroundColor=default;" parent="kHN6MsCyqRyvkHSUbOPT-99" vertex="1">
          <mxGeometry y="26" width="214" height="30" as="geometry" />
        </mxCell>
        <mxCell id="kHN6MsCyqRyvkHSUbOPT-104" value="+ set_params()" style="text;strokeColor=none;fillColor=none;align=left;verticalAlign=top;spacingLeft=4;spacingRight=4;overflow=hidden;rotatable=0;points=[[0,0.5],[1,0.5]];portConstraint=eastwest;whiteSpace=wrap;html=1;fontFamily=Helvetica;fontSize=11;fontColor=default;labelBackgroundColor=default;" parent="kHN6MsCyqRyvkHSUbOPT-99" vertex="1">
          <mxGeometry y="56" width="214" height="30" as="geometry" />
        </mxCell>
        <mxCell id="kHN6MsCyqRyvkHSUbOPT-118" value="+ get_params()" style="text;strokeColor=none;fillColor=none;align=left;verticalAlign=top;spacingLeft=4;spacingRight=4;overflow=hidden;rotatable=0;points=[[0,0.5],[1,0.5]];portConstraint=eastwest;whiteSpace=wrap;html=1;fontFamily=Helvetica;fontSize=11;fontColor=default;labelBackgroundColor=default;" parent="kHN6MsCyqRyvkHSUbOPT-99" vertex="1">
          <mxGeometry y="86" width="214" height="30" as="geometry" />
        </mxCell>
        <mxCell id="kHN6MsCyqRyvkHSUbOPT-110" style="edgeStyle=orthogonalEdgeStyle;shape=connector;rounded=0;jumpStyle=arc;jumpSize=12;orthogonalLoop=1;jettySize=auto;html=1;entryX=0.25;entryY=0;entryDx=0;entryDy=0;strokeColor=default;align=center;verticalAlign=middle;fontFamily=Helvetica;fontSize=11;fontColor=default;labelBackgroundColor=default;endArrow=classic;" parent="kHN6MsCyqRyvkHSUbOPT-84" source="kHN6MsCyqRyvkHSUbOPT-109" target="kHN6MsCyqRyvkHSUbOPT-93" edge="1">
          <mxGeometry relative="1" as="geometry" />
        </mxCell>
        <mxCell id="kHN6MsCyqRyvkHSUbOPT-112" style="edgeStyle=orthogonalEdgeStyle;shape=connector;rounded=0;jumpStyle=arc;jumpSize=12;orthogonalLoop=1;jettySize=auto;html=1;entryX=0.25;entryY=0;entryDx=0;entryDy=0;strokeColor=default;align=center;verticalAlign=middle;fontFamily=Helvetica;fontSize=11;fontColor=default;labelBackgroundColor=default;endArrow=classic;" parent="kHN6MsCyqRyvkHSUbOPT-84" source="kHN6MsCyqRyvkHSUbOPT-111" target="kHN6MsCyqRyvkHSUbOPT-99" edge="1">
          <mxGeometry relative="1" as="geometry">
            <Array as="points">
              <mxPoint x="620" y="305" />
              <mxPoint x="620" y="50" />
              <mxPoint x="854" y="50" />
            </Array>
          </mxGeometry>
        </mxCell>
        <mxCell id="kHN6MsCyqRyvkHSUbOPT-117" style="edgeStyle=orthogonalEdgeStyle;shape=connector;rounded=0;jumpStyle=arc;jumpSize=12;orthogonalLoop=1;jettySize=auto;html=1;strokeColor=default;align=center;verticalAlign=middle;fontFamily=Helvetica;fontSize=11;fontColor=default;labelBackgroundColor=default;endArrow=classic;" parent="kHN6MsCyqRyvkHSUbOPT-84" source="kHN6MsCyqRyvkHSUbOPT-105" target="kHN6MsCyqRyvkHSUbOPT-104" edge="1">
          <mxGeometry relative="1" as="geometry" />
        </mxCell>
        <mxCell id="kHN6MsCyqRyvkHSUbOPT-122" value="List" style="swimlane;fontStyle=0;childLayout=stackLayout;horizontal=1;startSize=30;horizontalStack=0;resizeParent=1;resizeParentMax=0;resizeLast=0;collapsible=1;marginBottom=0;whiteSpace=wrap;html=1;fontFamily=Helvetica;fontSize=11;labelBackgroundColor=none;fillColor=#f8cecc;strokeColor=#b85450;" parent="kHN6MsCyqRyvkHSUbOPT-84" vertex="1">
          <mxGeometry x="750" y="440" width="340" height="120" as="geometry" />
        </mxCell>
        <mxCell id="kHN6MsCyqRyvkHSUbOPT-123" value="+ Можно добавить hardcode режим, при котором можно задавать значения вручную." style="text;strokeColor=none;fillColor=none;align=left;verticalAlign=middle;spacingLeft=4;spacingRight=4;overflow=hidden;points=[[0,0.5],[1,0.5]];portConstraint=eastwest;rotatable=0;whiteSpace=wrap;html=1;fontFamily=Helvetica;fontSize=11;fontColor=default;labelBackgroundColor=default;" parent="kHN6MsCyqRyvkHSUbOPT-122" vertex="1">
          <mxGeometry y="30" width="340" height="30" as="geometry" />
        </mxCell>
        <mxCell id="kHN6MsCyqRyvkHSUbOPT-124" value="+ можно добавить загрузку данных на основе pydantic/json, а значит сделать некоторый обобщающий для них класс" style="text;strokeColor=none;fillColor=none;align=left;verticalAlign=middle;spacingLeft=4;spacingRight=4;overflow=hidden;points=[[0,0.5],[1,0.5]];portConstraint=eastwest;rotatable=0;whiteSpace=wrap;html=1;fontFamily=Helvetica;fontSize=11;fontColor=default;labelBackgroundColor=default;" parent="kHN6MsCyqRyvkHSUbOPT-122" vertex="1">
          <mxGeometry y="60" width="340" height="30" as="geometry" />
        </mxCell>
        <mxCell id="kHN6MsCyqRyvkHSUbOPT-125" value="+ добавить валидаторную функцию, чтобы с более гибкой/усложнённой логикой можно было валидировать значения" style="text;strokeColor=none;fillColor=none;align=left;verticalAlign=middle;spacingLeft=4;spacingRight=4;overflow=hidden;points=[[0,0.5],[1,0.5]];portConstraint=eastwest;rotatable=0;whiteSpace=wrap;html=1;fontFamily=Helvetica;fontSize=11;fontColor=default;labelBackgroundColor=default;" parent="kHN6MsCyqRyvkHSUbOPT-122" vertex="1">
          <mxGeometry y="90" width="340" height="30" as="geometry" />
        </mxCell>
        <mxCell id="kHN6MsCyqRyvkHSUbOPT-354" value="&lt;br&gt;&lt;div&gt;1) Данная группа классов предназначена для построения виджетов, предназначеных для управления параметрами.&lt;/div&gt;&lt;div&gt;2) Параметры будут проходить валидацию, их может изменять пользователь.&lt;/div&gt;&lt;div&gt;3) При изменении контроллер уведомляет о том, что параметры были изменены (а прослушивающий хавает это)&lt;/div&gt;&lt;div&gt;&lt;br&gt;&lt;/div&gt;&lt;div&gt;&lt;br&gt;&lt;/div&gt;" style="rounded=0;whiteSpace=wrap;html=1;strokeColor=default;align=left;verticalAlign=middle;fontFamily=Helvetica;fontSize=11;fontColor=default;fontStyle=0;labelBackgroundColor=default;fillColor=default;" parent="kHN6MsCyqRyvkHSUbOPT-84" vertex="1">
          <mxGeometry x="30" y="43" width="300" height="187" as="geometry" />
        </mxCell>
        <mxCell id="kHN6MsCyqRyvkHSUbOPT-127" value="Параметры" style="swimlane;whiteSpace=wrap;html=1;fontFamily=Helvetica;fontSize=11;fontColor=default;labelBackgroundColor=default;startSize=23;" parent="1" vertex="1">
          <mxGeometry x="1030" y="1300" width="1730" height="1010" as="geometry" />
        </mxCell>
        <mxCell id="kHN6MsCyqRyvkHSUbOPT-128" value="ParamsSchemeBase" style="swimlane;fontStyle=0;childLayout=stackLayout;horizontal=1;startSize=26;fillColor=none;horizontalStack=0;resizeParent=1;resizeParentMax=0;resizeLast=0;collapsible=1;marginBottom=0;whiteSpace=wrap;html=1;fontFamily=Helvetica;fontSize=11;fontColor=default;labelBackgroundColor=default;" parent="kHN6MsCyqRyvkHSUbOPT-127" vertex="1">
          <mxGeometry x="84.5" y="319.96" width="250" height="180" as="geometry" />
        </mxCell>
        <mxCell id="kHN6MsCyqRyvkHSUbOPT-134" value="__params_obj:ParamsObj" style="text;strokeColor=none;fillColor=none;align=left;verticalAlign=top;spacingLeft=4;spacingRight=4;overflow=hidden;rotatable=0;points=[[0,0.5],[1,0.5]];portConstraint=eastwest;whiteSpace=wrap;html=1;fontFamily=Helvetica;fontSize=11;fontColor=default;labelBackgroundColor=default;" parent="kHN6MsCyqRyvkHSUbOPT-128" vertex="1">
          <mxGeometry y="26" width="250" height="30" as="geometry" />
        </mxCell>
        <mxCell id="kHN6MsCyqRyvkHSUbOPT-152" value="get_param_by_name(name)" style="text;strokeColor=none;fillColor=none;align=left;verticalAlign=top;spacingLeft=4;spacingRight=4;overflow=hidden;rotatable=0;points=[[0,0.5],[1,0.5]];portConstraint=eastwest;whiteSpace=wrap;html=1;fontFamily=Helvetica;fontSize=11;fontColor=default;labelBackgroundColor=default;" parent="kHN6MsCyqRyvkHSUbOPT-128" vertex="1">
          <mxGeometry y="56" width="250" height="30" as="geometry" />
        </mxCell>
        <mxCell id="kHN6MsCyqRyvkHSUbOPT-153" value="try_set_param_by_name(name, *args, **kwargs) -&amp;gt; bool" style="text;strokeColor=none;fillColor=none;align=left;verticalAlign=top;spacingLeft=4;spacingRight=4;overflow=hidden;rotatable=0;points=[[0,0.5],[1,0.5]];portConstraint=eastwest;whiteSpace=wrap;html=1;fontFamily=Helvetica;fontSize=11;fontColor=default;labelBackgroundColor=default;" parent="kHN6MsCyqRyvkHSUbOPT-128" vertex="1">
          <mxGeometry y="86" width="250" height="44" as="geometry" />
        </mxCell>
        <mxCell id="kHN6MsCyqRyvkHSUbOPT-154" value="fields:List[Field]" style="text;strokeColor=none;fillColor=none;align=left;verticalAlign=top;spacingLeft=4;spacingRight=4;overflow=hidden;rotatable=0;points=[[0,0.5],[1,0.5]];portConstraint=eastwest;whiteSpace=wrap;html=1;fontFamily=Helvetica;fontSize=11;fontColor=default;labelBackgroundColor=default;" parent="kHN6MsCyqRyvkHSUbOPT-128" vertex="1">
          <mxGeometry y="130" width="250" height="30" as="geometry" />
        </mxCell>
        <mxCell id="kHN6MsCyqRyvkHSUbOPT-335" style="text;strokeColor=none;fillColor=none;align=left;verticalAlign=top;spacingLeft=4;spacingRight=4;overflow=hidden;rotatable=0;points=[[0,0.5],[1,0.5]];portConstraint=eastwest;whiteSpace=wrap;html=1;fontFamily=Helvetica;fontSize=11;fontColor=default;labelBackgroundColor=default;" parent="kHN6MsCyqRyvkHSUbOPT-128" vertex="1">
          <mxGeometry y="160" width="250" height="20" as="geometry" />
        </mxCell>
        <mxCell id="kHN6MsCyqRyvkHSUbOPT-185" style="edgeStyle=orthogonalEdgeStyle;shape=connector;rounded=0;jumpStyle=arc;jumpSize=12;orthogonalLoop=1;jettySize=auto;html=1;entryX=0.5;entryY=0;entryDx=0;entryDy=0;strokeColor=default;align=center;verticalAlign=middle;fontFamily=Helvetica;fontSize=11;fontColor=default;labelBackgroundColor=default;endArrow=block;endFill=1;endSize=13;" parent="kHN6MsCyqRyvkHSUbOPT-127" source="kHN6MsCyqRyvkHSUbOPT-148" target="kHN6MsCyqRyvkHSUbOPT-128" edge="1">
          <mxGeometry relative="1" as="geometry">
            <Array as="points">
              <mxPoint x="601.5" y="299.96" />
              <mxPoint x="209.5" y="299.96" />
            </Array>
          </mxGeometry>
        </mxCell>
        <mxCell id="kHN6MsCyqRyvkHSUbOPT-148" value="ParamsSchemeJson" style="swimlane;fontStyle=0;childLayout=stackLayout;horizontal=1;startSize=26;fillColor=none;horizontalStack=0;resizeParent=1;resizeParentMax=0;resizeLast=0;collapsible=1;marginBottom=0;whiteSpace=wrap;html=1;fontFamily=Helvetica;fontSize=11;fontColor=default;labelBackgroundColor=default;" parent="kHN6MsCyqRyvkHSUbOPT-127" vertex="1">
          <mxGeometry x="494.5" y="399.96" width="215.5" height="160" as="geometry" />
        </mxCell>
        <mxCell id="kHN6MsCyqRyvkHSUbOPT-199" value="__params_obj:ParamsObj" style="text;strokeColor=none;fillColor=none;align=left;verticalAlign=top;spacingLeft=4;spacingRight=4;overflow=hidden;rotatable=0;points=[[0,0.5],[1,0.5]];portConstraint=eastwest;whiteSpace=wrap;html=1;fontFamily=Helvetica;fontSize=11;fontColor=default;labelBackgroundColor=default;" parent="kHN6MsCyqRyvkHSUbOPT-148" vertex="1">
          <mxGeometry y="26" width="215.5" height="30" as="geometry" />
        </mxCell>
        <mxCell id="kHN6MsCyqRyvkHSUbOPT-198" value="get_param_by_name(name)" style="text;strokeColor=none;fillColor=none;align=left;verticalAlign=top;spacingLeft=4;spacingRight=4;overflow=hidden;rotatable=0;points=[[0,0.5],[1,0.5]];portConstraint=eastwest;whiteSpace=wrap;html=1;fontFamily=Helvetica;fontSize=11;fontColor=default;labelBackgroundColor=default;" parent="kHN6MsCyqRyvkHSUbOPT-148" vertex="1">
          <mxGeometry y="56" width="215.5" height="30" as="geometry" />
        </mxCell>
        <mxCell id="kHN6MsCyqRyvkHSUbOPT-197" value="try_set_param_by_name(name, *args, **kwargs) -&amp;gt; bool" style="text;strokeColor=none;fillColor=none;align=left;verticalAlign=top;spacingLeft=4;spacingRight=4;overflow=hidden;rotatable=0;points=[[0,0.5],[1,0.5]];portConstraint=eastwest;whiteSpace=wrap;html=1;fontFamily=Helvetica;fontSize=11;fontColor=default;labelBackgroundColor=default;" parent="kHN6MsCyqRyvkHSUbOPT-148" vertex="1">
          <mxGeometry y="86" width="215.5" height="44" as="geometry" />
        </mxCell>
        <mxCell id="kHN6MsCyqRyvkHSUbOPT-345" value="fields:List[Field]" style="text;strokeColor=none;fillColor=none;align=left;verticalAlign=top;spacingLeft=4;spacingRight=4;overflow=hidden;rotatable=0;points=[[0,0.5],[1,0.5]];portConstraint=eastwest;whiteSpace=wrap;html=1;fontFamily=Helvetica;fontSize=11;fontColor=default;labelBackgroundColor=default;" parent="kHN6MsCyqRyvkHSUbOPT-148" vertex="1">
          <mxGeometry y="130" width="215.5" height="30" as="geometry" />
        </mxCell>
        <mxCell id="kHN6MsCyqRyvkHSUbOPT-186" style="edgeStyle=orthogonalEdgeStyle;shape=connector;rounded=0;jumpStyle=arc;jumpSize=12;orthogonalLoop=1;jettySize=auto;html=1;strokeColor=default;align=center;verticalAlign=middle;fontFamily=Helvetica;fontSize=11;fontColor=default;labelBackgroundColor=default;endArrow=block;endFill=1;endSize=13;" parent="kHN6MsCyqRyvkHSUbOPT-127" source="kHN6MsCyqRyvkHSUbOPT-150" target="kHN6MsCyqRyvkHSUbOPT-128" edge="1">
          <mxGeometry relative="1" as="geometry">
            <Array as="points">
              <mxPoint x="865" y="290" />
              <mxPoint x="209" y="290" />
            </Array>
          </mxGeometry>
        </mxCell>
        <mxCell id="kHN6MsCyqRyvkHSUbOPT-150" value="ParamsSchemePydantic" style="swimlane;fontStyle=0;childLayout=stackLayout;horizontal=1;startSize=26;fillColor=none;horizontalStack=0;resizeParent=1;resizeParentMax=0;resizeLast=0;collapsible=1;marginBottom=0;whiteSpace=wrap;html=1;fontFamily=Helvetica;fontSize=11;fontColor=default;labelBackgroundColor=default;" parent="kHN6MsCyqRyvkHSUbOPT-127" vertex="1">
          <mxGeometry x="758.5" y="399.96" width="214" height="160" as="geometry" />
        </mxCell>
        <mxCell id="kHN6MsCyqRyvkHSUbOPT-200" value="__params_obj:ParamsObj" style="text;strokeColor=none;fillColor=none;align=left;verticalAlign=top;spacingLeft=4;spacingRight=4;overflow=hidden;rotatable=0;points=[[0,0.5],[1,0.5]];portConstraint=eastwest;whiteSpace=wrap;html=1;fontFamily=Helvetica;fontSize=11;fontColor=default;labelBackgroundColor=default;" parent="kHN6MsCyqRyvkHSUbOPT-150" vertex="1">
          <mxGeometry y="26" width="214" height="30" as="geometry" />
        </mxCell>
        <mxCell id="kHN6MsCyqRyvkHSUbOPT-201" value="get_param_by_name(name)" style="text;strokeColor=none;fillColor=none;align=left;verticalAlign=top;spacingLeft=4;spacingRight=4;overflow=hidden;rotatable=0;points=[[0,0.5],[1,0.5]];portConstraint=eastwest;whiteSpace=wrap;html=1;fontFamily=Helvetica;fontSize=11;fontColor=default;labelBackgroundColor=default;" parent="kHN6MsCyqRyvkHSUbOPT-150" vertex="1">
          <mxGeometry y="56" width="214" height="30" as="geometry" />
        </mxCell>
        <mxCell id="kHN6MsCyqRyvkHSUbOPT-202" value="try_set_param_by_name(name, *args, **kwargs) -&amp;gt; bool" style="text;strokeColor=none;fillColor=none;align=left;verticalAlign=top;spacingLeft=4;spacingRight=4;overflow=hidden;rotatable=0;points=[[0,0.5],[1,0.5]];portConstraint=eastwest;whiteSpace=wrap;html=1;fontFamily=Helvetica;fontSize=11;fontColor=default;labelBackgroundColor=default;" parent="kHN6MsCyqRyvkHSUbOPT-150" vertex="1">
          <mxGeometry y="86" width="214" height="44" as="geometry" />
        </mxCell>
        <mxCell id="kHN6MsCyqRyvkHSUbOPT-346" value="fields:List[Field]" style="text;strokeColor=none;fillColor=none;align=left;verticalAlign=top;spacingLeft=4;spacingRight=4;overflow=hidden;rotatable=0;points=[[0,0.5],[1,0.5]];portConstraint=eastwest;whiteSpace=wrap;html=1;fontFamily=Helvetica;fontSize=11;fontColor=default;labelBackgroundColor=default;" parent="kHN6MsCyqRyvkHSUbOPT-150" vertex="1">
          <mxGeometry y="130" width="214" height="30" as="geometry" />
        </mxCell>
        <mxCell id="kHN6MsCyqRyvkHSUbOPT-155" value="&lt;div&gt;Данная группа классов необходима для хранения/загрузки/передачи параметров через объекты. А тажке для сериализации/десериализации.&lt;/div&gt;&lt;div&gt;Данную группу можно будет использовать для построения виджетов параметризации&lt;/div&gt;" style="rounded=0;whiteSpace=wrap;html=1;fontFamily=Helvetica;fontSize=11;fontColor=default;labelBackgroundColor=default;" parent="kHN6MsCyqRyvkHSUbOPT-127" vertex="1">
          <mxGeometry x="12" y="40" width="269" height="120" as="geometry" />
        </mxCell>
        <mxCell id="kHN6MsCyqRyvkHSUbOPT-159" value="" style="edgeStyle=orthogonalEdgeStyle;shape=connector;rounded=0;jumpStyle=arc;jumpSize=12;orthogonalLoop=1;jettySize=auto;html=1;strokeColor=default;align=center;verticalAlign=middle;fontFamily=Helvetica;fontSize=11;fontColor=default;labelBackgroundColor=default;endArrow=classic;" parent="kHN6MsCyqRyvkHSUbOPT-127" source="kHN6MsCyqRyvkHSUbOPT-157" target="kHN6MsCyqRyvkHSUbOPT-158" edge="1">
          <mxGeometry relative="1" as="geometry" />
        </mxCell>
        <mxCell id="kHN6MsCyqRyvkHSUbOPT-175" style="edgeStyle=orthogonalEdgeStyle;shape=connector;rounded=0;jumpStyle=arc;jumpSize=12;orthogonalLoop=1;jettySize=auto;html=1;strokeColor=default;align=center;verticalAlign=middle;fontFamily=Helvetica;fontSize=11;fontColor=default;labelBackgroundColor=default;endArrow=classic;" parent="kHN6MsCyqRyvkHSUbOPT-127" source="kHN6MsCyqRyvkHSUbOPT-157" target="kHN6MsCyqRyvkHSUbOPT-174" edge="1">
          <mxGeometry relative="1" as="geometry" />
        </mxCell>
        <mxCell id="kHN6MsCyqRyvkHSUbOPT-177" style="edgeStyle=orthogonalEdgeStyle;shape=connector;rounded=0;jumpStyle=arc;jumpSize=12;orthogonalLoop=1;jettySize=auto;html=1;strokeColor=default;align=center;verticalAlign=middle;fontFamily=Helvetica;fontSize=11;fontColor=default;labelBackgroundColor=default;endArrow=classic;" parent="kHN6MsCyqRyvkHSUbOPT-127" source="kHN6MsCyqRyvkHSUbOPT-157" target="kHN6MsCyqRyvkHSUbOPT-176" edge="1">
          <mxGeometry relative="1" as="geometry">
            <Array as="points">
              <mxPoint x="600" y="115" />
              <mxPoint x="600" y="230" />
            </Array>
          </mxGeometry>
        </mxCell>
        <mxCell id="kHN6MsCyqRyvkHSUbOPT-157" value="Примеры использования" style="rounded=0;whiteSpace=wrap;html=1;fontFamily=Helvetica;fontSize=11;fontColor=default;labelBackgroundColor=default;" parent="kHN6MsCyqRyvkHSUbOPT-127" vertex="1">
          <mxGeometry x="355" y="100" width="209" height="30" as="geometry" />
        </mxCell>
        <mxCell id="kHN6MsCyqRyvkHSUbOPT-158" value="Загрузить ограничения параметров для виджета из json" style="whiteSpace=wrap;html=1;fontSize=11;rounded=0;labelBackgroundColor=default;" parent="kHN6MsCyqRyvkHSUbOPT-127" vertex="1">
          <mxGeometry x="650" y="50" width="230" height="60" as="geometry" />
        </mxCell>
        <mxCell id="kHN6MsCyqRyvkHSUbOPT-174" value="Загрузить ограничения параметров для виджета из pydantic объекта?" style="whiteSpace=wrap;html=1;fontSize=11;rounded=0;labelBackgroundColor=default;" parent="kHN6MsCyqRyvkHSUbOPT-127" vertex="1">
          <mxGeometry x="670" y="120" width="190" height="60" as="geometry" />
        </mxCell>
        <mxCell id="kHN6MsCyqRyvkHSUbOPT-176" value="Свалидировать предоставленные данные (в переменную)" style="whiteSpace=wrap;html=1;fontSize=11;rounded=0;labelBackgroundColor=default;" parent="kHN6MsCyqRyvkHSUbOPT-127" vertex="1">
          <mxGeometry x="650" y="200" width="230" height="60" as="geometry" />
        </mxCell>
        <mxCell id="kHN6MsCyqRyvkHSUbOPT-178" value="ParamsLoader" style="swimlane;fontStyle=0;childLayout=stackLayout;horizontal=1;startSize=26;fillColor=none;horizontalStack=0;resizeParent=1;resizeParentMax=0;resizeLast=0;collapsible=1;marginBottom=0;whiteSpace=wrap;html=1;fontFamily=Helvetica;fontSize=11;fontColor=default;labelBackgroundColor=default;" parent="kHN6MsCyqRyvkHSUbOPT-127" vertex="1">
          <mxGeometry x="80" y="513.96" width="330" height="210" as="geometry" />
        </mxCell>
        <mxCell id="kHN6MsCyqRyvkHSUbOPT-179" value="params_obj" style="text;strokeColor=none;fillColor=none;align=left;verticalAlign=top;spacingLeft=4;spacingRight=4;overflow=hidden;rotatable=0;points=[[0,0.5],[1,0.5]];portConstraint=eastwest;whiteSpace=wrap;html=1;fontFamily=Helvetica;fontSize=11;fontColor=default;labelBackgroundColor=default;" parent="kHN6MsCyqRyvkHSUbOPT-178" vertex="1">
          <mxGeometry y="26" width="330" height="30" as="geometry" />
        </mxCell>
        <mxCell id="kHN6MsCyqRyvkHSUbOPT-180" value="+ load_fields_scheme_from_json(path)-&amp;gt;ParamsJson" style="text;strokeColor=none;fillColor=none;align=left;verticalAlign=top;spacingLeft=4;spacingRight=4;overflow=hidden;rotatable=0;points=[[0,0.5],[1,0.5]];portConstraint=eastwest;whiteSpace=wrap;html=1;fontFamily=Helvetica;fontSize=11;fontColor=default;labelBackgroundColor=default;" parent="kHN6MsCyqRyvkHSUbOPT-178" vertex="1">
          <mxGeometry y="56" width="330" height="30" as="geometry" />
        </mxCell>
        <mxCell id="kHN6MsCyqRyvkHSUbOPT-181" value="+ load_fields_from_pydantic_obj(pydantic_obj)-&amp;gt;ParamsJson" style="text;strokeColor=none;fillColor=none;align=left;verticalAlign=top;spacingLeft=4;spacingRight=4;overflow=hidden;rotatable=0;points=[[0,0.5],[1,0.5]];portConstraint=eastwest;whiteSpace=wrap;html=1;fontFamily=Helvetica;fontSize=11;fontColor=default;labelBackgroundColor=default;" parent="kHN6MsCyqRyvkHSUbOPT-178" vertex="1">
          <mxGeometry y="86" width="330" height="26" as="geometry" />
        </mxCell>
        <mxCell id="kHN6MsCyqRyvkHSUbOPT-182" value="+ save_values_to_json(path, ParamsSchemeBase)" style="text;strokeColor=none;fillColor=none;align=left;verticalAlign=top;spacingLeft=4;spacingRight=4;overflow=hidden;rotatable=0;points=[[0,0.5],[1,0.5]];portConstraint=eastwest;whiteSpace=wrap;html=1;fontFamily=Helvetica;fontSize=11;fontColor=default;labelBackgroundColor=default;" parent="kHN6MsCyqRyvkHSUbOPT-178" vertex="1">
          <mxGeometry y="112" width="330" height="30" as="geometry" />
        </mxCell>
        <mxCell id="kHN6MsCyqRyvkHSUbOPT-347" value="+ load_values_from_jsonj(path, ParamsSchemeBase) -&amp;gt;ParamsSchemeBase" style="text;strokeColor=none;fillColor=none;align=left;verticalAlign=top;spacingLeft=4;spacingRight=4;overflow=hidden;rotatable=0;points=[[0,0.5],[1,0.5]];portConstraint=eastwest;whiteSpace=wrap;html=1;fontFamily=Helvetica;fontSize=11;fontColor=default;labelBackgroundColor=default;" parent="kHN6MsCyqRyvkHSUbOPT-178" vertex="1">
          <mxGeometry y="142" width="330" height="68" as="geometry" />
        </mxCell>
        <mxCell id="kHN6MsCyqRyvkHSUbOPT-183" style="edgeStyle=orthogonalEdgeStyle;shape=connector;rounded=0;jumpStyle=arc;jumpSize=12;orthogonalLoop=1;jettySize=auto;html=1;entryX=0.25;entryY=0;entryDx=0;entryDy=0;strokeColor=default;align=center;verticalAlign=middle;fontFamily=Helvetica;fontSize=11;fontColor=default;labelBackgroundColor=default;endArrow=classic;" parent="kHN6MsCyqRyvkHSUbOPT-127" source="kHN6MsCyqRyvkHSUbOPT-180" target="kHN6MsCyqRyvkHSUbOPT-148" edge="1">
          <mxGeometry relative="1" as="geometry" />
        </mxCell>
        <mxCell id="kHN6MsCyqRyvkHSUbOPT-184" style="edgeStyle=orthogonalEdgeStyle;shape=connector;rounded=0;jumpStyle=arc;jumpSize=12;orthogonalLoop=1;jettySize=auto;html=1;entryX=0.25;entryY=0;entryDx=0;entryDy=0;strokeColor=default;align=center;verticalAlign=middle;fontFamily=Helvetica;fontSize=11;fontColor=default;labelBackgroundColor=default;endArrow=classic;" parent="kHN6MsCyqRyvkHSUbOPT-127" source="kHN6MsCyqRyvkHSUbOPT-181" target="kHN6MsCyqRyvkHSUbOPT-150" edge="1">
          <mxGeometry relative="1" as="geometry">
            <Array as="points">
              <mxPoint x="438.5" y="612.96" />
              <mxPoint x="438.5" y="369.96" />
              <mxPoint x="811.5" y="369.96" />
            </Array>
          </mxGeometry>
        </mxCell>
        <mxCell id="kHN6MsCyqRyvkHSUbOPT-188" value="ParamsObj" style="swimlane;fontStyle=0;childLayout=stackLayout;horizontal=1;startSize=26;fillColor=none;horizontalStack=0;resizeParent=1;resizeParentMax=0;resizeLast=0;collapsible=1;marginBottom=0;whiteSpace=wrap;html=1;fontFamily=Helvetica;fontSize=11;fontColor=default;labelBackgroundColor=default;" parent="kHN6MsCyqRyvkHSUbOPT-127" vertex="1">
          <mxGeometry x="80" y="220.00000000000006" width="214" height="56" as="geometry" />
        </mxCell>
        <mxCell id="kHN6MsCyqRyvkHSUbOPT-189" value="params..." style="text;strokeColor=none;fillColor=none;align=left;verticalAlign=top;spacingLeft=4;spacingRight=4;overflow=hidden;rotatable=0;points=[[0,0.5],[1,0.5]];portConstraint=eastwest;whiteSpace=wrap;html=1;fontFamily=Helvetica;fontSize=11;fontColor=default;labelBackgroundColor=default;" parent="kHN6MsCyqRyvkHSUbOPT-188" vertex="1">
          <mxGeometry y="26" width="214" height="30" as="geometry" />
        </mxCell>
        <mxCell id="kHN6MsCyqRyvkHSUbOPT-190" style="edgeStyle=orthogonalEdgeStyle;shape=connector;rounded=0;jumpStyle=arc;jumpSize=12;orthogonalLoop=1;jettySize=auto;html=1;entryX=0.25;entryY=0;entryDx=0;entryDy=0;strokeColor=default;align=center;verticalAlign=middle;fontFamily=Helvetica;fontSize=11;fontColor=default;labelBackgroundColor=default;endArrow=classic;" parent="kHN6MsCyqRyvkHSUbOPT-127" source="kHN6MsCyqRyvkHSUbOPT-134" target="kHN6MsCyqRyvkHSUbOPT-188" edge="1">
          <mxGeometry relative="1" as="geometry">
            <Array as="points">
              <mxPoint x="65" y="361" />
              <mxPoint x="65" y="200" />
              <mxPoint x="133" y="200" />
            </Array>
          </mxGeometry>
        </mxCell>
        <mxCell id="kHN6MsCyqRyvkHSUbOPT-212" value="int" style="swimlane;fontStyle=0;childLayout=stackLayout;horizontal=1;startSize=26;fillColor=none;horizontalStack=0;resizeParent=1;resizeParentMax=0;resizeLast=0;collapsible=1;marginBottom=0;whiteSpace=wrap;html=1;fontFamily=Helvetica;fontSize=11;fontColor=default;labelBackgroundColor=default;" parent="kHN6MsCyqRyvkHSUbOPT-127" vertex="1">
          <mxGeometry x="1440" y="40" width="250" height="146" as="geometry" />
        </mxCell>
        <mxCell id="kHN6MsCyqRyvkHSUbOPT-217" value="display_type:scrollbar/input_field?" style="text;strokeColor=none;fillColor=none;align=left;verticalAlign=top;spacingLeft=4;spacingRight=4;overflow=hidden;rotatable=0;points=[[0,0.5],[1,0.5]];portConstraint=eastwest;whiteSpace=wrap;html=1;fontFamily=Helvetica;fontSize=11;fontColor=default;labelBackgroundColor=default;" parent="kHN6MsCyqRyvkHSUbOPT-212" vertex="1">
          <mxGeometry y="26" width="250" height="30" as="geometry" />
        </mxCell>
        <mxCell id="kHN6MsCyqRyvkHSUbOPT-214" value="step" style="text;strokeColor=none;fillColor=none;align=left;verticalAlign=top;spacingLeft=4;spacingRight=4;overflow=hidden;rotatable=0;points=[[0,0.5],[1,0.5]];portConstraint=eastwest;whiteSpace=wrap;html=1;fontFamily=Helvetica;fontSize=11;fontColor=default;labelBackgroundColor=default;" parent="kHN6MsCyqRyvkHSUbOPT-212" vertex="1">
          <mxGeometry y="56" width="250" height="30" as="geometry" />
        </mxCell>
        <mxCell id="kHN6MsCyqRyvkHSUbOPT-215" value="min" style="text;strokeColor=none;fillColor=none;align=left;verticalAlign=top;spacingLeft=4;spacingRight=4;overflow=hidden;rotatable=0;points=[[0,0.5],[1,0.5]];portConstraint=eastwest;whiteSpace=wrap;html=1;fontFamily=Helvetica;fontSize=11;fontColor=default;labelBackgroundColor=default;" parent="kHN6MsCyqRyvkHSUbOPT-212" vertex="1">
          <mxGeometry y="86" width="250" height="30" as="geometry" />
        </mxCell>
        <mxCell id="kHN6MsCyqRyvkHSUbOPT-216" value="max" style="text;strokeColor=none;fillColor=none;align=left;verticalAlign=top;spacingLeft=4;spacingRight=4;overflow=hidden;rotatable=0;points=[[0,0.5],[1,0.5]];portConstraint=eastwest;whiteSpace=wrap;html=1;fontFamily=Helvetica;fontSize=11;fontColor=default;labelBackgroundColor=default;" parent="kHN6MsCyqRyvkHSUbOPT-212" vertex="1">
          <mxGeometry y="116" width="250" height="30" as="geometry" />
        </mxCell>
        <mxCell id="kHN6MsCyqRyvkHSUbOPT-227" value="DisplayTypes" style="swimlane;fontStyle=0;childLayout=stackLayout;horizontal=1;startSize=26;fillColor=none;horizontalStack=0;resizeParent=1;resizeParentMax=0;resizeLast=0;collapsible=1;marginBottom=0;whiteSpace=wrap;html=1;fontFamily=Helvetica;fontSize=11;fontColor=default;labelBackgroundColor=default;" parent="kHN6MsCyqRyvkHSUbOPT-127" vertex="1">
          <mxGeometry x="1050" y="364" width="240" height="162" as="geometry" />
        </mxCell>
        <mxCell id="kHN6MsCyqRyvkHSUbOPT-228" value="+ ScrollBar" style="text;strokeColor=none;fillColor=none;align=left;verticalAlign=top;spacingLeft=4;spacingRight=4;overflow=hidden;rotatable=0;points=[[0,0.5],[1,0.5]];portConstraint=eastwest;whiteSpace=wrap;html=1;fontFamily=Helvetica;fontSize=11;fontColor=default;labelBackgroundColor=default;" parent="kHN6MsCyqRyvkHSUbOPT-227" vertex="1">
          <mxGeometry y="26" width="240" height="26" as="geometry" />
        </mxCell>
        <mxCell id="kHN6MsCyqRyvkHSUbOPT-229" value="+ InputField" style="text;strokeColor=none;fillColor=none;align=left;verticalAlign=top;spacingLeft=4;spacingRight=4;overflow=hidden;rotatable=0;points=[[0,0.5],[1,0.5]];portConstraint=eastwest;whiteSpace=wrap;html=1;fontFamily=Helvetica;fontSize=11;fontColor=default;labelBackgroundColor=default;" parent="kHN6MsCyqRyvkHSUbOPT-227" vertex="1">
          <mxGeometry y="52" width="240" height="26" as="geometry" />
        </mxCell>
        <mxCell id="kHN6MsCyqRyvkHSUbOPT-230" value="+ RadioButton" style="text;strokeColor=none;fillColor=none;align=left;verticalAlign=top;spacingLeft=4;spacingRight=4;overflow=hidden;rotatable=0;points=[[0,0.5],[1,0.5]];portConstraint=eastwest;whiteSpace=wrap;html=1;fontFamily=Helvetica;fontSize=11;fontColor=default;labelBackgroundColor=default;" parent="kHN6MsCyqRyvkHSUbOPT-227" vertex="1">
          <mxGeometry y="78" width="240" height="32" as="geometry" />
        </mxCell>
        <mxCell id="kHN6MsCyqRyvkHSUbOPT-231" value="+ Checkbox" style="text;strokeColor=none;fillColor=none;align=left;verticalAlign=top;spacingLeft=4;spacingRight=4;overflow=hidden;rotatable=0;points=[[0,0.5],[1,0.5]];portConstraint=eastwest;whiteSpace=wrap;html=1;fontFamily=Helvetica;fontSize=11;fontColor=default;labelBackgroundColor=default;" parent="kHN6MsCyqRyvkHSUbOPT-227" vertex="1">
          <mxGeometry y="110" width="240" height="26" as="geometry" />
        </mxCell>
        <mxCell id="kHN6MsCyqRyvkHSUbOPT-252" value="+ combobox" style="text;strokeColor=none;fillColor=none;align=left;verticalAlign=top;spacingLeft=4;spacingRight=4;overflow=hidden;rotatable=0;points=[[0,0.5],[1,0.5]];portConstraint=eastwest;whiteSpace=wrap;html=1;fontFamily=Helvetica;fontSize=11;fontColor=default;labelBackgroundColor=default;" parent="kHN6MsCyqRyvkHSUbOPT-227" vertex="1">
          <mxGeometry y="136" width="240" height="26" as="geometry" />
        </mxCell>
        <mxCell id="kHN6MsCyqRyvkHSUbOPT-233" value="float" style="swimlane;fontStyle=0;childLayout=stackLayout;horizontal=1;startSize=26;fillColor=none;horizontalStack=0;resizeParent=1;resizeParentMax=0;resizeLast=0;collapsible=1;marginBottom=0;whiteSpace=wrap;html=1;fontFamily=Helvetica;fontSize=11;fontColor=default;labelBackgroundColor=default;" parent="kHN6MsCyqRyvkHSUbOPT-127" vertex="1">
          <mxGeometry x="1440" y="240" width="250" height="146" as="geometry" />
        </mxCell>
        <mxCell id="kHN6MsCyqRyvkHSUbOPT-235" value="display_type:scrollbar/input_field?" style="text;strokeColor=none;fillColor=none;align=left;verticalAlign=top;spacingLeft=4;spacingRight=4;overflow=hidden;rotatable=0;points=[[0,0.5],[1,0.5]];portConstraint=eastwest;whiteSpace=wrap;html=1;fontFamily=Helvetica;fontSize=11;fontColor=default;labelBackgroundColor=default;" parent="kHN6MsCyqRyvkHSUbOPT-233" vertex="1">
          <mxGeometry y="26" width="250" height="30" as="geometry" />
        </mxCell>
        <mxCell id="kHN6MsCyqRyvkHSUbOPT-236" value="step" style="text;strokeColor=none;fillColor=none;align=left;verticalAlign=top;spacingLeft=4;spacingRight=4;overflow=hidden;rotatable=0;points=[[0,0.5],[1,0.5]];portConstraint=eastwest;whiteSpace=wrap;html=1;fontFamily=Helvetica;fontSize=11;fontColor=default;labelBackgroundColor=default;" parent="kHN6MsCyqRyvkHSUbOPT-233" vertex="1">
          <mxGeometry y="56" width="250" height="30" as="geometry" />
        </mxCell>
        <mxCell id="kHN6MsCyqRyvkHSUbOPT-237" value="min" style="text;strokeColor=none;fillColor=none;align=left;verticalAlign=top;spacingLeft=4;spacingRight=4;overflow=hidden;rotatable=0;points=[[0,0.5],[1,0.5]];portConstraint=eastwest;whiteSpace=wrap;html=1;fontFamily=Helvetica;fontSize=11;fontColor=default;labelBackgroundColor=default;" parent="kHN6MsCyqRyvkHSUbOPT-233" vertex="1">
          <mxGeometry y="86" width="250" height="30" as="geometry" />
        </mxCell>
        <mxCell id="kHN6MsCyqRyvkHSUbOPT-238" value="max" style="text;strokeColor=none;fillColor=none;align=left;verticalAlign=top;spacingLeft=4;spacingRight=4;overflow=hidden;rotatable=0;points=[[0,0.5],[1,0.5]];portConstraint=eastwest;whiteSpace=wrap;html=1;fontFamily=Helvetica;fontSize=11;fontColor=default;labelBackgroundColor=default;" parent="kHN6MsCyqRyvkHSUbOPT-233" vertex="1">
          <mxGeometry y="116" width="250" height="30" as="geometry" />
        </mxCell>
        <mxCell id="kHN6MsCyqRyvkHSUbOPT-342" style="edgeStyle=orthogonalEdgeStyle;shape=connector;rounded=0;jumpStyle=arc;jumpSize=12;orthogonalLoop=1;jettySize=auto;html=1;strokeColor=default;align=center;verticalAlign=middle;fontFamily=Helvetica;fontSize=11;fontColor=default;labelBackgroundColor=default;endArrow=block;endFill=1;endSize=13;" parent="kHN6MsCyqRyvkHSUbOPT-127" source="kHN6MsCyqRyvkHSUbOPT-239" target="kHN6MsCyqRyvkHSUbOPT-329" edge="1">
          <mxGeometry relative="1" as="geometry">
            <Array as="points">
              <mxPoint x="1360" y="483" />
              <mxPoint x="1360" y="80" />
              <mxPoint x="1158" y="80" />
            </Array>
          </mxGeometry>
        </mxCell>
        <mxCell id="kHN6MsCyqRyvkHSUbOPT-239" value="bool" style="swimlane;fontStyle=0;childLayout=stackLayout;horizontal=1;startSize=26;fillColor=none;horizontalStack=0;resizeParent=1;resizeParentMax=0;resizeLast=0;collapsible=1;marginBottom=0;whiteSpace=wrap;html=1;fontFamily=Helvetica;fontSize=11;fontColor=default;labelBackgroundColor=default;" parent="kHN6MsCyqRyvkHSUbOPT-127" vertex="1">
          <mxGeometry x="1440" y="440" width="250" height="56" as="geometry" />
        </mxCell>
        <mxCell id="kHN6MsCyqRyvkHSUbOPT-241" value="display_type:checkbox" style="text;strokeColor=none;fillColor=none;align=left;verticalAlign=top;spacingLeft=4;spacingRight=4;overflow=hidden;rotatable=0;points=[[0,0.5],[1,0.5]];portConstraint=eastwest;whiteSpace=wrap;html=1;fontFamily=Helvetica;fontSize=11;fontColor=default;labelBackgroundColor=default;" parent="kHN6MsCyqRyvkHSUbOPT-239" vertex="1">
          <mxGeometry y="26" width="250" height="30" as="geometry" />
        </mxCell>
        <mxCell id="kHN6MsCyqRyvkHSUbOPT-248" value="Что добавить" style="swimlane;fontStyle=0;childLayout=stackLayout;horizontal=1;startSize=26;fillColor=#f8cecc;horizontalStack=0;resizeParent=1;resizeParentMax=0;resizeLast=0;collapsible=1;marginBottom=0;whiteSpace=wrap;html=1;fontFamily=Helvetica;fontSize=11;labelBackgroundColor=none;strokeColor=#b85450;" parent="kHN6MsCyqRyvkHSUbOPT-127" vertex="1">
          <mxGeometry x="1110" y="630" width="290" height="104" as="geometry" />
        </mxCell>
        <mxCell id="kHN6MsCyqRyvkHSUbOPT-249" value="+ по идее надо бы рекурсивные интерфейсы..." style="text;strokeColor=none;fillColor=none;align=left;verticalAlign=top;spacingLeft=4;spacingRight=4;overflow=hidden;rotatable=0;points=[[0,0.5],[1,0.5]];portConstraint=eastwest;whiteSpace=wrap;html=1;fontFamily=Helvetica;fontSize=11;fontColor=default;labelBackgroundColor=default;" parent="kHN6MsCyqRyvkHSUbOPT-248" vertex="1">
          <mxGeometry y="26" width="290" height="26" as="geometry" />
        </mxCell>
        <mxCell id="kHN6MsCyqRyvkHSUbOPT-250" value="+ значения по умолчанию" style="text;strokeColor=none;fillColor=none;align=left;verticalAlign=top;spacingLeft=4;spacingRight=4;overflow=hidden;rotatable=0;points=[[0,0.5],[1,0.5]];portConstraint=eastwest;whiteSpace=wrap;html=1;fontFamily=Helvetica;fontSize=11;fontColor=default;labelBackgroundColor=default;" parent="kHN6MsCyqRyvkHSUbOPT-248" vertex="1">
          <mxGeometry y="52" width="290" height="26" as="geometry" />
        </mxCell>
        <mxCell id="kHN6MsCyqRyvkHSUbOPT-251" value="+ field: type" style="text;strokeColor=none;fillColor=none;align=left;verticalAlign=top;spacingLeft=4;spacingRight=4;overflow=hidden;rotatable=0;points=[[0,0.5],[1,0.5]];portConstraint=eastwest;whiteSpace=wrap;html=1;fontFamily=Helvetica;fontSize=11;fontColor=default;labelBackgroundColor=default;" parent="kHN6MsCyqRyvkHSUbOPT-248" vertex="1">
          <mxGeometry y="78" width="290" height="26" as="geometry" />
        </mxCell>
        <mxCell id="kHN6MsCyqRyvkHSUbOPT-343" style="edgeStyle=orthogonalEdgeStyle;shape=connector;rounded=0;jumpStyle=arc;jumpSize=12;orthogonalLoop=1;jettySize=auto;html=1;strokeColor=default;align=center;verticalAlign=middle;fontFamily=Helvetica;fontSize=11;fontColor=default;labelBackgroundColor=default;endArrow=block;endFill=1;endSize=13;" parent="kHN6MsCyqRyvkHSUbOPT-127" source="kHN6MsCyqRyvkHSUbOPT-319" target="kHN6MsCyqRyvkHSUbOPT-329" edge="1">
          <mxGeometry relative="1" as="geometry">
            <Array as="points">
              <mxPoint x="1360" y="598" />
              <mxPoint x="1360" y="80" />
              <mxPoint x="1158" y="80" />
            </Array>
          </mxGeometry>
        </mxCell>
        <mxCell id="kHN6MsCyqRyvkHSUbOPT-319" value="combobox" style="swimlane;fontStyle=0;childLayout=stackLayout;horizontal=1;startSize=26;fillColor=none;horizontalStack=0;resizeParent=1;resizeParentMax=0;resizeLast=0;collapsible=1;marginBottom=0;whiteSpace=wrap;html=1;fontFamily=Helvetica;fontSize=11;fontColor=default;labelBackgroundColor=default;" parent="kHN6MsCyqRyvkHSUbOPT-127" vertex="1">
          <mxGeometry x="1440" y="540" width="250" height="86" as="geometry" />
        </mxCell>
        <mxCell id="kHN6MsCyqRyvkHSUbOPT-321" value="display_type:combobox" style="text;strokeColor=none;fillColor=none;align=left;verticalAlign=top;spacingLeft=4;spacingRight=4;overflow=hidden;rotatable=0;points=[[0,0.5],[1,0.5]];portConstraint=eastwest;whiteSpace=wrap;html=1;fontFamily=Helvetica;fontSize=11;fontColor=default;labelBackgroundColor=default;" parent="kHN6MsCyqRyvkHSUbOPT-319" vertex="1">
          <mxGeometry y="26" width="250" height="30" as="geometry" />
        </mxCell>
        <mxCell id="kHN6MsCyqRyvkHSUbOPT-322" value="values:List[...]" style="text;strokeColor=none;fillColor=none;align=left;verticalAlign=top;spacingLeft=4;spacingRight=4;overflow=hidden;rotatable=0;points=[[0,0.5],[1,0.5]];portConstraint=eastwest;whiteSpace=wrap;html=1;fontFamily=Helvetica;fontSize=11;fontColor=default;labelBackgroundColor=default;" parent="kHN6MsCyqRyvkHSUbOPT-319" vertex="1">
          <mxGeometry y="56" width="250" height="30" as="geometry" />
        </mxCell>
        <mxCell id="kHN6MsCyqRyvkHSUbOPT-329" value="Field" style="swimlane;fontStyle=0;childLayout=stackLayout;horizontal=1;startSize=26;fillColor=none;horizontalStack=0;resizeParent=1;resizeParentMax=0;resizeLast=0;collapsible=1;marginBottom=0;whiteSpace=wrap;html=1;fontFamily=Helvetica;fontSize=11;fontColor=default;labelBackgroundColor=default;" parent="kHN6MsCyqRyvkHSUbOPT-127" vertex="1">
          <mxGeometry x="1038" y="148" width="240" height="78" as="geometry" />
        </mxCell>
        <mxCell id="kHN6MsCyqRyvkHSUbOPT-330" value="type" style="text;strokeColor=none;fillColor=none;align=left;verticalAlign=top;spacingLeft=4;spacingRight=4;overflow=hidden;rotatable=0;points=[[0,0.5],[1,0.5]];portConstraint=eastwest;whiteSpace=wrap;html=1;fontFamily=Helvetica;fontSize=11;fontColor=default;labelBackgroundColor=default;" parent="kHN6MsCyqRyvkHSUbOPT-329" vertex="1">
          <mxGeometry y="26" width="240" height="26" as="geometry" />
        </mxCell>
        <mxCell id="kHN6MsCyqRyvkHSUbOPT-344" value="display_type" style="text;strokeColor=none;fillColor=none;align=left;verticalAlign=top;spacingLeft=4;spacingRight=4;overflow=hidden;rotatable=0;points=[[0,0.5],[1,0.5]];portConstraint=eastwest;whiteSpace=wrap;html=1;fontFamily=Helvetica;fontSize=11;fontColor=default;labelBackgroundColor=default;" parent="kHN6MsCyqRyvkHSUbOPT-329" vertex="1">
          <mxGeometry y="52" width="240" height="26" as="geometry" />
        </mxCell>
        <mxCell id="kHN6MsCyqRyvkHSUbOPT-336" style="edgeStyle=orthogonalEdgeStyle;shape=connector;rounded=0;jumpStyle=arc;jumpSize=12;orthogonalLoop=1;jettySize=auto;html=1;strokeColor=default;align=center;verticalAlign=middle;fontFamily=Helvetica;fontSize=11;fontColor=default;labelBackgroundColor=default;endArrow=classic;" parent="kHN6MsCyqRyvkHSUbOPT-127" source="kHN6MsCyqRyvkHSUbOPT-154" target="kHN6MsCyqRyvkHSUbOPT-329" edge="1">
          <mxGeometry relative="1" as="geometry">
            <Array as="points">
              <mxPoint x="380" y="460" />
              <mxPoint x="380" y="280" />
              <mxPoint x="1170" y="280" />
            </Array>
          </mxGeometry>
        </mxCell>
        <mxCell id="kHN6MsCyqRyvkHSUbOPT-338" style="edgeStyle=orthogonalEdgeStyle;shape=connector;rounded=0;jumpStyle=arc;jumpSize=12;orthogonalLoop=1;jettySize=auto;html=1;strokeColor=default;align=center;verticalAlign=middle;fontFamily=Helvetica;fontSize=11;fontColor=default;labelBackgroundColor=default;endArrow=block;endFill=1;endSize=13;" parent="kHN6MsCyqRyvkHSUbOPT-127" source="kHN6MsCyqRyvkHSUbOPT-212" target="kHN6MsCyqRyvkHSUbOPT-329" edge="1">
          <mxGeometry relative="1" as="geometry">
            <mxPoint x="1877" y="-10" as="sourcePoint" />
            <mxPoint x="1220" y="-90" as="targetPoint" />
            <Array as="points">
              <mxPoint x="1360" y="128" />
              <mxPoint x="1360" y="80" />
              <mxPoint x="1158" y="80" />
            </Array>
          </mxGeometry>
        </mxCell>
        <mxCell id="kHN6MsCyqRyvkHSUbOPT-339" style="edgeStyle=orthogonalEdgeStyle;shape=connector;rounded=0;jumpStyle=arc;jumpSize=12;orthogonalLoop=1;jettySize=auto;html=1;strokeColor=default;align=center;verticalAlign=middle;fontFamily=Helvetica;fontSize=11;fontColor=default;labelBackgroundColor=default;endArrow=block;endFill=1;endSize=13;entryX=0.5;entryY=0;entryDx=0;entryDy=0;" parent="kHN6MsCyqRyvkHSUbOPT-127" source="kHN6MsCyqRyvkHSUbOPT-233" target="kHN6MsCyqRyvkHSUbOPT-329" edge="1">
          <mxGeometry relative="1" as="geometry">
            <mxPoint x="1450" y="138" as="sourcePoint" />
            <mxPoint x="1168" y="158" as="targetPoint" />
            <Array as="points">
              <mxPoint x="1360" y="328" />
              <mxPoint x="1360" y="80" />
              <mxPoint x="1158" y="80" />
            </Array>
          </mxGeometry>
        </mxCell>
        <mxCell id="kHN6MsCyqRyvkHSUbOPT-355" value="Модуль главного окна (где объединяются модули?)" style="swimlane;whiteSpace=wrap;html=1;strokeColor=default;align=center;verticalAlign=middle;fontFamily=Helvetica;fontSize=11;fontColor=default;fontStyle=1;labelBackgroundColor=default;fillColor=default;direction=north;movable=1;resizable=1;rotatable=1;deletable=1;editable=1;locked=0;connectable=1;" parent="1" vertex="1">
          <mxGeometry x="-2200" y="1430" width="2930" height="1970" as="geometry" />
        </mxCell>
        <mxCell id="kHN6MsCyqRyvkHSUbOPT-358" value="Сделаем декомпозицию снизу вверх" style="rounded=0;whiteSpace=wrap;html=1;strokeColor=default;align=center;verticalAlign=middle;fontFamily=Helvetica;fontSize=11;fontColor=default;fontStyle=0;labelBackgroundColor=default;fillColor=default;" parent="kHN6MsCyqRyvkHSUbOPT-355" vertex="1">
          <mxGeometry x="30" y="51" width="250" height="39" as="geometry" />
        </mxCell>
        <mxCell id="kHN6MsCyqRyvkHSUbOPT-392" style="edgeStyle=orthogonalEdgeStyle;shape=connector;rounded=0;jumpStyle=arc;jumpSize=12;orthogonalLoop=1;jettySize=auto;html=1;strokeColor=default;align=center;verticalAlign=middle;fontFamily=Helvetica;fontSize=11;fontColor=default;fontStyle=1;labelBackgroundColor=default;endArrow=classic;" parent="kHN6MsCyqRyvkHSUbOPT-355" source="kHN6MsCyqRyvkHSUbOPT-391" edge="1">
          <mxGeometry relative="1" as="geometry">
            <mxPoint x="1590" y="525" as="targetPoint" />
          </mxGeometry>
        </mxCell>
        <mxCell id="kHN6MsCyqRyvkHSUbOPT-393" value="Теперь попробуем собрать структуру проекта " style="edgeLabel;html=1;align=center;verticalAlign=middle;resizable=0;points=[];rounded=0;strokeColor=default;fontFamily=Helvetica;fontSize=11;fontColor=default;fontStyle=1;labelBackgroundColor=default;fillColor=default;whiteSpace=wrap;" parent="kHN6MsCyqRyvkHSUbOPT-392" vertex="1" connectable="0">
          <mxGeometry x="0.2372" y="-1" relative="1" as="geometry">
            <mxPoint as="offset" />
          </mxGeometry>
        </mxCell>
        <mxCell id="kHN6MsCyqRyvkHSUbOPT-391" value="Поток мысли, декомпозиция снизу" style="swimlane;whiteSpace=wrap;html=1;rounded=0;strokeColor=default;align=center;verticalAlign=middle;fontFamily=Helvetica;fontSize=11;fontColor=default;fontStyle=1;labelBackgroundColor=default;fillColor=default;" parent="kHN6MsCyqRyvkHSUbOPT-355" vertex="1">
          <mxGeometry x="180" y="190" width="1230" height="670" as="geometry" />
        </mxCell>
        <mxCell id="kHN6MsCyqRyvkHSUbOPT-365" value="" style="edgeStyle=orthogonalEdgeStyle;shape=connector;rounded=0;jumpStyle=arc;jumpSize=12;orthogonalLoop=1;jettySize=auto;html=1;strokeColor=default;align=center;verticalAlign=middle;fontFamily=Helvetica;fontSize=11;fontColor=default;labelBackgroundColor=default;endArrow=classic;" parent="kHN6MsCyqRyvkHSUbOPT-391" source="kHN6MsCyqRyvkHSUbOPT-363" target="kHN6MsCyqRyvkHSUbOPT-364" edge="1">
          <mxGeometry relative="1" as="geometry" />
        </mxCell>
        <mxCell id="kHN6MsCyqRyvkHSUbOPT-366" value="Кто подаёт команды?" style="edgeLabel;html=1;align=center;verticalAlign=middle;resizable=0;points=[];strokeColor=default;fontFamily=Helvetica;fontSize=11;fontColor=default;fontStyle=1;labelBackgroundColor=default;fillColor=default;" parent="kHN6MsCyqRyvkHSUbOPT-365" vertex="1" connectable="0">
          <mxGeometry x="0.1793" relative="1" as="geometry">
            <mxPoint x="-29" as="offset" />
          </mxGeometry>
        </mxCell>
        <mxCell id="kHN6MsCyqRyvkHSUbOPT-370" style="edgeStyle=orthogonalEdgeStyle;shape=connector;rounded=0;jumpStyle=arc;jumpSize=12;orthogonalLoop=1;jettySize=auto;html=1;strokeColor=default;align=center;verticalAlign=middle;fontFamily=Helvetica;fontSize=11;fontColor=default;labelBackgroundColor=default;endArrow=classic;dashed=1;" parent="kHN6MsCyqRyvkHSUbOPT-391" source="kHN6MsCyqRyvkHSUbOPT-363" target="kHN6MsCyqRyvkHSUbOPT-367" edge="1">
          <mxGeometry relative="1" as="geometry" />
        </mxCell>
        <mxCell id="kHN6MsCyqRyvkHSUbOPT-371" value="Как настраивать?" style="edgeLabel;html=1;align=center;verticalAlign=middle;resizable=0;points=[];strokeColor=default;fontFamily=Helvetica;fontSize=11;fontColor=default;fontStyle=1;labelBackgroundColor=default;fillColor=default;" parent="kHN6MsCyqRyvkHSUbOPT-370" vertex="1" connectable="0">
          <mxGeometry x="-0.1733" y="2" relative="1" as="geometry">
            <mxPoint as="offset" />
          </mxGeometry>
        </mxCell>
        <mxCell id="kHN6MsCyqRyvkHSUbOPT-389" style="edgeStyle=orthogonalEdgeStyle;shape=connector;rounded=0;jumpStyle=arc;jumpSize=12;orthogonalLoop=1;jettySize=auto;html=1;strokeColor=default;align=center;verticalAlign=middle;fontFamily=Helvetica;fontSize=11;fontColor=default;labelBackgroundColor=default;endArrow=classic;dashed=1;" parent="kHN6MsCyqRyvkHSUbOPT-391" source="kHN6MsCyqRyvkHSUbOPT-363" target="kHN6MsCyqRyvkHSUbOPT-388" edge="1">
          <mxGeometry relative="1" as="geometry">
            <Array as="points">
              <mxPoint x="155" y="134" />
            </Array>
          </mxGeometry>
        </mxCell>
        <mxCell id="kHN6MsCyqRyvkHSUbOPT-390" value="Как управлять выполнением?" style="edgeLabel;html=1;align=center;verticalAlign=middle;resizable=0;points=[];strokeColor=default;fontFamily=Helvetica;fontSize=11;fontColor=default;fontStyle=1;labelBackgroundColor=default;fillColor=default;" parent="kHN6MsCyqRyvkHSUbOPT-389" vertex="1" connectable="0">
          <mxGeometry x="0.3694" y="1" relative="1" as="geometry">
            <mxPoint as="offset" />
          </mxGeometry>
        </mxCell>
        <mxCell id="kHN6MsCyqRyvkHSUbOPT-363" value="То, что выполняет команды" style="rounded=0;whiteSpace=wrap;html=1;strokeColor=default;align=center;verticalAlign=middle;fontFamily=Helvetica;fontSize=11;fontColor=default;fontStyle=1;labelBackgroundColor=default;fillColor=default;" parent="kHN6MsCyqRyvkHSUbOPT-391" vertex="1">
          <mxGeometry x="200" y="104" width="120" height="60" as="geometry" />
        </mxCell>
        <mxCell id="kHN6MsCyqRyvkHSUbOPT-373" style="edgeStyle=orthogonalEdgeStyle;shape=connector;rounded=0;jumpStyle=arc;jumpSize=12;orthogonalLoop=1;jettySize=auto;html=1;strokeColor=default;align=center;verticalAlign=middle;fontFamily=Helvetica;fontSize=11;fontColor=default;labelBackgroundColor=default;endArrow=classic;dashed=1;" parent="kHN6MsCyqRyvkHSUbOPT-391" source="kHN6MsCyqRyvkHSUbOPT-364" target="kHN6MsCyqRyvkHSUbOPT-372" edge="1">
          <mxGeometry relative="1" as="geometry" />
        </mxCell>
        <mxCell id="kHN6MsCyqRyvkHSUbOPT-375" value="Как настраивать? (чувствительность, сглаженность мб и т.д.)" style="edgeLabel;html=1;align=center;verticalAlign=middle;resizable=0;points=[];strokeColor=default;fontFamily=Helvetica;fontSize=11;fontColor=default;fontStyle=1;labelBackgroundColor=default;fillColor=default;whiteSpace=wrap;" parent="kHN6MsCyqRyvkHSUbOPT-373" vertex="1" connectable="0">
          <mxGeometry x="-0.0718" y="1" relative="1" as="geometry">
            <mxPoint as="offset" />
          </mxGeometry>
        </mxCell>
        <mxCell id="kHN6MsCyqRyvkHSUbOPT-377" value="" style="edgeStyle=orthogonalEdgeStyle;shape=connector;rounded=0;jumpStyle=arc;jumpSize=12;orthogonalLoop=1;jettySize=auto;html=1;strokeColor=default;align=center;verticalAlign=middle;fontFamily=Helvetica;fontSize=11;fontColor=default;labelBackgroundColor=default;endArrow=classic;" parent="kHN6MsCyqRyvkHSUbOPT-391" source="kHN6MsCyqRyvkHSUbOPT-364" target="kHN6MsCyqRyvkHSUbOPT-376" edge="1">
          <mxGeometry relative="1" as="geometry" />
        </mxCell>
        <mxCell id="kHN6MsCyqRyvkHSUbOPT-378" value="Откуда берёт исходную картинку (numpy массив ключевых точек)" style="edgeLabel;html=1;align=center;verticalAlign=middle;resizable=0;points=[];strokeColor=default;fontFamily=Helvetica;fontSize=11;fontColor=default;fontStyle=1;labelBackgroundColor=default;fillColor=default;whiteSpace=wrap;rotation=0;" parent="kHN6MsCyqRyvkHSUbOPT-377" vertex="1" connectable="0">
          <mxGeometry relative="1" as="geometry">
            <mxPoint as="offset" />
          </mxGeometry>
        </mxCell>
        <mxCell id="kHN6MsCyqRyvkHSUbOPT-364" value="Генератор команд" style="rounded=0;whiteSpace=wrap;html=1;strokeColor=default;align=center;verticalAlign=middle;fontFamily=Helvetica;fontSize=11;fontColor=default;fontStyle=1;labelBackgroundColor=default;fillColor=default;" parent="kHN6MsCyqRyvkHSUbOPT-391" vertex="1">
          <mxGeometry x="560" y="104" width="120" height="60" as="geometry" />
        </mxCell>
        <mxCell id="kHN6MsCyqRyvkHSUbOPT-367" value="Личный конфиг (Модуль виджетов для параметризации ) или целый виджет, пока всё равно" style="rounded=0;whiteSpace=wrap;html=1;strokeColor=default;align=center;verticalAlign=middle;fontFamily=Helvetica;fontSize=11;fontColor=default;fontStyle=1;labelBackgroundColor=default;fillColor=default;" parent="kHN6MsCyqRyvkHSUbOPT-391" vertex="1">
          <mxGeometry x="310" y="261" width="150" height="77" as="geometry" />
        </mxCell>
        <mxCell id="kHN6MsCyqRyvkHSUbOPT-372" value="Личный конфиг (Модуль виджетов для параметризации ) или целый виджет, пока всё равно" style="rounded=0;whiteSpace=wrap;html=1;strokeColor=default;align=center;verticalAlign=middle;fontFamily=Helvetica;fontSize=11;fontColor=default;fontStyle=1;labelBackgroundColor=default;fillColor=default;" parent="kHN6MsCyqRyvkHSUbOPT-391" vertex="1">
          <mxGeometry x="545" y="281" width="150" height="87" as="geometry" />
        </mxCell>
        <mxCell id="kHN6MsCyqRyvkHSUbOPT-374" value="" style="edgeLabel;html=1;align=center;verticalAlign=middle;resizable=0;points=[];strokeColor=default;fontFamily=Helvetica;fontSize=11;fontColor=default;fontStyle=1;labelBackgroundColor=default;fillColor=default;" parent="kHN6MsCyqRyvkHSUbOPT-391" vertex="1" connectable="0">
          <mxGeometry x="560" y="198.61538461538476" as="geometry" />
        </mxCell>
        <mxCell id="kHN6MsCyqRyvkHSUbOPT-385" value="" style="edgeStyle=orthogonalEdgeStyle;shape=connector;rounded=0;jumpStyle=arc;jumpSize=12;orthogonalLoop=1;jettySize=auto;html=1;strokeColor=default;align=center;verticalAlign=middle;fontFamily=Helvetica;fontSize=11;fontColor=default;labelBackgroundColor=default;endArrow=classic;" parent="kHN6MsCyqRyvkHSUbOPT-391" source="kHN6MsCyqRyvkHSUbOPT-376" target="kHN6MsCyqRyvkHSUbOPT-384" edge="1">
          <mxGeometry relative="1" as="geometry">
            <Array as="points">
              <mxPoint x="1090" y="134" />
              <mxPoint x="1090" y="343" />
              <mxPoint x="1080" y="343" />
              <mxPoint x="1080" y="551" />
            </Array>
          </mxGeometry>
        </mxCell>
        <mxCell id="kHN6MsCyqRyvkHSUbOPT-387" value="Откуда берёт чистую картинку?" style="edgeLabel;html=1;align=center;verticalAlign=middle;resizable=0;points=[];strokeColor=default;fontFamily=Helvetica;fontSize=11;fontColor=default;fontStyle=1;labelBackgroundColor=default;fillColor=default;" parent="kHN6MsCyqRyvkHSUbOPT-385" vertex="1" connectable="0">
          <mxGeometry x="0.261" relative="1" as="geometry">
            <mxPoint x="10" y="-150" as="offset" />
          </mxGeometry>
        </mxCell>
        <mxCell id="kHN6MsCyqRyvkHSUbOPT-376" value="Преобразователь картинки" style="whiteSpace=wrap;html=1;fontSize=11;rounded=0;fontStyle=1;labelBackgroundColor=default;" parent="kHN6MsCyqRyvkHSUbOPT-391" vertex="1">
          <mxGeometry x="873" y="104" width="120" height="60" as="geometry" />
        </mxCell>
        <mxCell id="kHN6MsCyqRyvkHSUbOPT-381" style="edgeStyle=orthogonalEdgeStyle;shape=connector;rounded=0;jumpStyle=arc;jumpSize=12;orthogonalLoop=1;jettySize=auto;html=1;strokeColor=default;align=center;verticalAlign=middle;fontFamily=Helvetica;fontSize=11;fontColor=default;labelBackgroundColor=default;endArrow=classic;dashed=1;" parent="kHN6MsCyqRyvkHSUbOPT-391" source="kHN6MsCyqRyvkHSUbOPT-376" target="kHN6MsCyqRyvkHSUbOPT-383" edge="1">
          <mxGeometry relative="1" as="geometry">
            <mxPoint x="918" y="198.62" as="sourcePoint" />
          </mxGeometry>
        </mxCell>
        <mxCell id="kHN6MsCyqRyvkHSUbOPT-382" value="Как настраивать? (чувствительность, сглаженность мб и т.д.)" style="edgeLabel;html=1;align=center;verticalAlign=middle;resizable=0;points=[];strokeColor=default;fontFamily=Helvetica;fontSize=11;fontColor=default;fontStyle=1;labelBackgroundColor=default;fillColor=default;whiteSpace=wrap;" parent="kHN6MsCyqRyvkHSUbOPT-381" vertex="1" connectable="0">
          <mxGeometry x="-0.0718" y="1" relative="1" as="geometry">
            <mxPoint as="offset" />
          </mxGeometry>
        </mxCell>
        <mxCell id="kHN6MsCyqRyvkHSUbOPT-383" value="Личный конфиг (Модуль виджетов для параметризации ) или целый виджет, пока всё равно" style="rounded=0;whiteSpace=wrap;html=1;strokeColor=default;align=center;verticalAlign=middle;fontFamily=Helvetica;fontSize=11;fontColor=default;fontStyle=1;labelBackgroundColor=default;fillColor=default;" parent="kHN6MsCyqRyvkHSUbOPT-391" vertex="1">
          <mxGeometry x="858" y="301" width="150" height="87" as="geometry" />
        </mxCell>
        <mxCell id="kHN6MsCyqRyvkHSUbOPT-384" value="Загрузчик картинок" style="whiteSpace=wrap;html=1;fontSize=11;rounded=0;fontStyle=1;labelBackgroundColor=default;" parent="kHN6MsCyqRyvkHSUbOPT-391" vertex="1">
          <mxGeometry x="888" y="521" width="120" height="60" as="geometry" />
        </mxCell>
        <mxCell id="kHN6MsCyqRyvkHSUbOPT-388" value="&lt;span style=&quot;font-weight: normal;&quot;&gt;Должен быть предоставлен интерфейс взаимодействия, через который будет дёргать пользователь/main window. То есть должна быть возможность остановить/продолжить выполнение или поставить на последовательное выполнение&lt;/span&gt; &lt;span style=&quot;font-weight: normal;&quot;&gt;через цикл&lt;/span&gt;" style="rounded=0;whiteSpace=wrap;html=1;strokeColor=default;align=center;verticalAlign=middle;fontFamily=Helvetica;fontSize=11;fontColor=default;fontStyle=1;labelBackgroundColor=default;fillColor=default;" parent="kHN6MsCyqRyvkHSUbOPT-391" vertex="1">
          <mxGeometry x="80" y="301" width="150" height="160" as="geometry" />
        </mxCell>
        <mxCell id="kHN6MsCyqRyvkHSUbOPT-401" value="отобразить картинку" style="shape=connector;rounded=0;jumpStyle=arc;jumpSize=12;orthogonalLoop=1;jettySize=auto;html=1;strokeColor=default;align=center;verticalAlign=middle;fontFamily=Helvetica;fontSize=11;fontColor=default;fontStyle=0;labelBackgroundColor=default;endArrow=classic;" parent="kHN6MsCyqRyvkHSUbOPT-355" source="kHN6MsCyqRyvkHSUbOPT-394" target="kHN6MsCyqRyvkHSUbOPT-400" edge="1">
          <mxGeometry relative="1" as="geometry" />
        </mxCell>
        <mxCell id="9JvjjZEk37608ZKm6qpz-3" value="2" style="edgeLabel;html=1;align=center;verticalAlign=middle;resizable=0;points=[];fontSize=12;fontStyle=0" parent="kHN6MsCyqRyvkHSUbOPT-401" vertex="1" connectable="0">
          <mxGeometry x="-0.5147" relative="1" as="geometry">
            <mxPoint as="offset" />
          </mxGeometry>
        </mxCell>
        <mxCell id="6ZY9S43hMKRgGW2OKreL-4" value="3" style="rounded=0;orthogonalLoop=1;jettySize=auto;html=1;" parent="kHN6MsCyqRyvkHSUbOPT-355" source="kHN6MsCyqRyvkHSUbOPT-394" target="9JvjjZEk37608ZKm6qpz-9" edge="1">
          <mxGeometry relative="1" as="geometry">
            <mxPoint x="2389.1176470588234" y="424" as="targetPoint" />
          </mxGeometry>
        </mxCell>
        <mxCell id="9JvjjZEk37608ZKm6qpz-25" value="5" style="rounded=0;orthogonalLoop=1;jettySize=auto;html=1;fontFamily=Helvetica;fontSize=11;fontColor=default;fontStyle=0;labelBackgroundColor=default;resizable=0;" parent="kHN6MsCyqRyvkHSUbOPT-355" source="kHN6MsCyqRyvkHSUbOPT-394" target="9JvjjZEk37608ZKm6qpz-24" edge="1">
          <mxGeometry relative="1" as="geometry" />
        </mxCell>
        <mxCell id="kHN6MsCyqRyvkHSUbOPT-394" value="Главное ядро приложения" style="rounded=0;whiteSpace=wrap;html=1;strokeColor=default;align=center;verticalAlign=middle;fontFamily=Helvetica;fontSize=11;fontColor=default;fontStyle=0;labelBackgroundColor=default;fillColor=default;" parent="kHN6MsCyqRyvkHSUbOPT-355" vertex="1">
          <mxGeometry x="2220" y="500" width="120" height="60" as="geometry" />
        </mxCell>
        <mxCell id="kHN6MsCyqRyvkHSUbOPT-395" value="Модуль загрузки картинок" style="rounded=0;whiteSpace=wrap;html=1;strokeColor=#82b366;align=center;verticalAlign=middle;fontFamily=Helvetica;fontSize=11;fontStyle=0;labelBackgroundColor=none;fillColor=#d5e8d4;" parent="kHN6MsCyqRyvkHSUbOPT-355" vertex="1">
          <mxGeometry x="1800" y="250" width="120" height="60" as="geometry" />
        </mxCell>
        <mxCell id="kHN6MsCyqRyvkHSUbOPT-399" style="shape=connector;rounded=0;jumpStyle=arc;jumpSize=12;orthogonalLoop=1;jettySize=auto;html=1;strokeColor=default;align=center;verticalAlign=middle;fontFamily=Helvetica;fontSize=11;fontColor=default;fontStyle=1;labelBackgroundColor=default;endArrow=classic;" parent="kHN6MsCyqRyvkHSUbOPT-355" source="kHN6MsCyqRyvkHSUbOPT-398" target="kHN6MsCyqRyvkHSUbOPT-395" edge="1">
          <mxGeometry relative="1" as="geometry" />
        </mxCell>
        <mxCell id="9JvjjZEk37608ZKm6qpz-45" style="rounded=0;orthogonalLoop=1;jettySize=auto;html=1;fontFamily=Helvetica;fontSize=11;fontColor=default;fontStyle=0;labelBackgroundColor=default;resizable=0;dashed=1;" parent="kHN6MsCyqRyvkHSUbOPT-355" source="kHN6MsCyqRyvkHSUbOPT-398" target="kHN6MsCyqRyvkHSUbOPT-400" edge="1">
          <mxGeometry relative="1" as="geometry" />
        </mxCell>
        <mxCell id="kHN6MsCyqRyvkHSUbOPT-398" value="1) Загрузить картинку" style="rounded=0;whiteSpace=wrap;html=1;strokeColor=default;align=center;verticalAlign=middle;fontFamily=Helvetica;fontSize=11;fontColor=default;fontStyle=0;labelBackgroundColor=default;fillColor=default;" parent="kHN6MsCyqRyvkHSUbOPT-355" vertex="1">
          <mxGeometry x="1989.9999999999995" y="380" width="120" height="60" as="geometry" />
        </mxCell>
        <mxCell id="kHN6MsCyqRyvkHSUbOPT-396" value="1" style="shape=connector;rounded=0;jumpStyle=arc;jumpSize=12;orthogonalLoop=1;jettySize=auto;html=1;strokeColor=#666666;align=center;verticalAlign=middle;fontFamily=Helvetica;fontSize=11;fontColor=default;fontStyle=0;labelBackgroundColor=default;endArrow=classic;fillColor=#f5f5f5;" parent="kHN6MsCyqRyvkHSUbOPT-355" source="kHN6MsCyqRyvkHSUbOPT-394" target="kHN6MsCyqRyvkHSUbOPT-398" edge="1">
          <mxGeometry relative="1" as="geometry">
            <mxPoint x="2100" y="430" as="targetPoint" />
          </mxGeometry>
        </mxCell>
        <mxCell id="kHN6MsCyqRyvkHSUbOPT-400" value="Модуль отображения картинки" style="rounded=0;whiteSpace=wrap;html=1;strokeColor=#82b366;align=center;verticalAlign=middle;fontFamily=Helvetica;fontSize=11;fontStyle=0;labelBackgroundColor=none;fillColor=#d5e8d4;" parent="kHN6MsCyqRyvkHSUbOPT-355" vertex="1">
          <mxGeometry x="2160" y="250" width="120" height="60" as="geometry" />
        </mxCell>
        <mxCell id="9JvjjZEk37608ZKm6qpz-19" value="4" style="rounded=0;orthogonalLoop=1;jettySize=auto;html=1;fontFamily=Helvetica;fontSize=11;fontColor=default;fontStyle=0;labelBackgroundColor=default;resizable=0;" parent="kHN6MsCyqRyvkHSUbOPT-355" source="kHN6MsCyqRyvkHSUbOPT-394" target="9JvjjZEk37608ZKm6qpz-20" edge="1">
          <mxGeometry relative="1" as="geometry">
            <mxPoint x="2590" y="550" as="targetPoint" />
          </mxGeometry>
        </mxCell>
        <mxCell id="6ZY9S43hMKRgGW2OKreL-1" value="Модуль отображения картинки" style="rounded=0;whiteSpace=wrap;html=1;strokeColor=#82b366;align=center;verticalAlign=middle;fontFamily=Helvetica;fontSize=11;fontStyle=0;labelBackgroundColor=none;fillColor=#d5e8d4;labelBorderColor=none;" parent="kHN6MsCyqRyvkHSUbOPT-355" vertex="1">
          <mxGeometry x="2760" y="460" width="120" height="60" as="geometry" />
        </mxCell>
        <mxCell id="9JvjjZEk37608ZKm6qpz-20" value="Карта, созданная в представлении, должна отображаться (пусть и numpy?)" style="rounded=0;whiteSpace=wrap;html=1;strokeColor=default;align=center;verticalAlign=middle;fontFamily=Helvetica;fontSize=11;fontColor=default;fontStyle=0;labelBackgroundColor=default;fillColor=default;" parent="kHN6MsCyqRyvkHSUbOPT-355" vertex="1">
          <mxGeometry x="2569.9999999999995" y="470" width="120" height="60" as="geometry" />
        </mxCell>
        <mxCell id="9JvjjZEk37608ZKm6qpz-9" value="&lt;div&gt;1) Создаётся виджет данного семейства&lt;/div&gt;&lt;div&gt;2) Пользователь может редактировать восприятие картинки&lt;/div&gt;" style="rounded=0;whiteSpace=wrap;html=1;strokeColor=default;align=center;verticalAlign=middle;fontFamily=Helvetica;fontSize=11;fontColor=default;fontStyle=0;labelBackgroundColor=default;fillColor=default;" parent="kHN6MsCyqRyvkHSUbOPT-355" vertex="1">
          <mxGeometry x="2390" y="304" width="160" height="106" as="geometry" />
        </mxCell>
        <mxCell id="6ZY9S43hMKRgGW2OKreL-3" value="Модуль преобразования картинки (на выходе numpy/объект картинки?)" style="rounded=0;whiteSpace=wrap;html=1;strokeColor=#82b366;align=center;verticalAlign=middle;fontFamily=Helvetica;fontSize=11;fontStyle=0;labelBackgroundColor=none;fillColor=#d5e8d4;" parent="kHN6MsCyqRyvkHSUbOPT-355" vertex="1">
          <mxGeometry x="2590" y="180" width="140" height="90" as="geometry" />
        </mxCell>
        <mxCell id="9JvjjZEk37608ZKm6qpz-21" style="rounded=0;orthogonalLoop=1;jettySize=auto;html=1;fontFamily=Helvetica;fontSize=11;fontColor=default;fontStyle=0;labelBackgroundColor=default;resizable=0;" parent="kHN6MsCyqRyvkHSUbOPT-355" source="9JvjjZEk37608ZKm6qpz-20" target="6ZY9S43hMKRgGW2OKreL-1" edge="1">
          <mxGeometry relative="1" as="geometry" />
        </mxCell>
        <mxCell id="9JvjjZEk37608ZKm6qpz-22" style="rounded=0;orthogonalLoop=1;jettySize=auto;html=1;fontFamily=Helvetica;fontSize=11;fontColor=default;fontStyle=0;labelBackgroundColor=default;resizable=0;dashed=1;" parent="kHN6MsCyqRyvkHSUbOPT-355" source="9JvjjZEk37608ZKm6qpz-9" target="9JvjjZEk37608ZKm6qpz-20" edge="1">
          <mxGeometry relative="1" as="geometry">
            <mxPoint x="2616" y="480" as="sourcePoint" />
            <mxPoint x="2684" y="400" as="targetPoint" />
          </mxGeometry>
        </mxCell>
        <mxCell id="9JvjjZEk37608ZKm6qpz-6" style="rounded=0;orthogonalLoop=1;jettySize=auto;html=1;fontFamily=Helvetica;fontSize=13;fontColor=default;labelBackgroundColor=default;resizable=0;" parent="kHN6MsCyqRyvkHSUbOPT-355" source="9JvjjZEk37608ZKm6qpz-9" target="6ZY9S43hMKRgGW2OKreL-3" edge="1">
          <mxGeometry relative="1" as="geometry">
            <mxPoint x="2436.3157894736837" y="374" as="sourcePoint" />
          </mxGeometry>
        </mxCell>
        <mxCell id="9JvjjZEk37608ZKm6qpz-33" style="rounded=0;orthogonalLoop=1;jettySize=auto;html=1;fontFamily=Helvetica;fontSize=11;fontColor=default;fontStyle=0;labelBackgroundColor=default;resizable=0;dashed=1;" parent="kHN6MsCyqRyvkHSUbOPT-355" source="9JvjjZEk37608ZKm6qpz-23" target="9JvjjZEk37608ZKm6qpz-29" edge="1">
          <mxGeometry relative="1" as="geometry" />
        </mxCell>
        <mxCell id="9JvjjZEk37608ZKm6qpz-34" value="команды" style="edgeLabel;html=1;align=center;verticalAlign=middle;resizable=0;points=[];rounded=0;strokeColor=default;fontFamily=Helvetica;fontSize=11;fontColor=default;fontStyle=0;labelBackgroundColor=default;fillColor=default;" parent="9JvjjZEk37608ZKm6qpz-33" vertex="1" connectable="0">
          <mxGeometry x="-0.1902" y="2" relative="1" as="geometry">
            <mxPoint as="offset" />
          </mxGeometry>
        </mxCell>
        <mxCell id="9JvjjZEk37608ZKm6qpz-23" value="Модуль генерации команд" style="rounded=0;whiteSpace=wrap;html=1;strokeColor=default;align=center;verticalAlign=middle;fontFamily=Helvetica;fontSize=11;fontColor=default;fontStyle=0;labelBackgroundColor=none;fillColor=default;" parent="kHN6MsCyqRyvkHSUbOPT-355" vertex="1">
          <mxGeometry x="2399.9999999999995" y="790" width="120" height="60" as="geometry" />
        </mxCell>
        <mxCell id="9JvjjZEk37608ZKm6qpz-24" value="Карту надо преобразовать в команды" style="rounded=0;whiteSpace=wrap;html=1;strokeColor=default;align=center;verticalAlign=middle;fontFamily=Helvetica;fontSize=11;fontColor=default;fontStyle=0;labelBackgroundColor=default;fillColor=default;" parent="kHN6MsCyqRyvkHSUbOPT-355" vertex="1">
          <mxGeometry x="2439.9999999999995" y="640" width="120" height="60" as="geometry" />
        </mxCell>
        <mxCell id="9JvjjZEk37608ZKm6qpz-26" style="rounded=0;orthogonalLoop=1;jettySize=auto;html=1;fontFamily=Helvetica;fontSize=11;fontColor=default;fontStyle=0;labelBackgroundColor=default;resizable=0;dashed=1;" parent="kHN6MsCyqRyvkHSUbOPT-355" source="9JvjjZEk37608ZKm6qpz-9" target="9JvjjZEk37608ZKm6qpz-24" edge="1">
          <mxGeometry relative="1" as="geometry">
            <mxPoint x="2511" y="420" as="sourcePoint" />
            <mxPoint x="2552" y="490" as="targetPoint" />
          </mxGeometry>
        </mxCell>
        <mxCell id="9JvjjZEk37608ZKm6qpz-27" value="" style="rounded=0;orthogonalLoop=1;jettySize=auto;html=1;fontFamily=Helvetica;fontSize=11;fontColor=default;fontStyle=0;labelBackgroundColor=default;resizable=0;" parent="kHN6MsCyqRyvkHSUbOPT-355" source="9JvjjZEk37608ZKm6qpz-24" target="9JvjjZEk37608ZKm6qpz-23" edge="1">
          <mxGeometry relative="1" as="geometry">
            <mxPoint x="2550" y="570" as="sourcePoint" />
            <mxPoint x="2676" y="650" as="targetPoint" />
          </mxGeometry>
        </mxCell>
        <mxCell id="9JvjjZEk37608ZKm6qpz-28" value="Модуль интерпретации комманд" style="rounded=0;whiteSpace=wrap;html=1;strokeColor=default;align=center;verticalAlign=middle;fontFamily=Helvetica;fontSize=11;fontColor=default;fontStyle=0;labelBackgroundColor=none;fillColor=default;" parent="kHN6MsCyqRyvkHSUbOPT-355" vertex="1">
          <mxGeometry x="1889.9999999999995" y="850" width="120" height="60" as="geometry" />
        </mxCell>
        <mxCell id="9JvjjZEk37608ZKm6qpz-29" value="&lt;div&gt;1) Команды надо выполнить&lt;/div&gt;&lt;div&gt;2) Необходимо иметь доступ к настройке порядка выполнения&lt;/div&gt;&lt;div&gt;3) Необходимо иметь возможность к остановке/продолжению и т.д. выполнения &lt;br&gt;&lt;/div&gt;" style="rounded=0;whiteSpace=wrap;html=1;strokeColor=default;align=center;verticalAlign=middle;fontFamily=Helvetica;fontSize=11;fontColor=default;fontStyle=0;labelBackgroundColor=default;fillColor=default;" parent="kHN6MsCyqRyvkHSUbOPT-355" vertex="1">
          <mxGeometry x="1910" y="640" width="280" height="100" as="geometry" />
        </mxCell>
        <mxCell id="9JvjjZEk37608ZKm6qpz-30" value="6" style="rounded=0;orthogonalLoop=1;jettySize=auto;html=1;fontFamily=Helvetica;fontSize=11;fontColor=default;fontStyle=0;labelBackgroundColor=default;resizable=0;" parent="kHN6MsCyqRyvkHSUbOPT-355" source="kHN6MsCyqRyvkHSUbOPT-394" target="9JvjjZEk37608ZKm6qpz-29" edge="1">
          <mxGeometry relative="1" as="geometry">
            <mxPoint x="2337" y="570" as="sourcePoint" />
            <mxPoint x="2463" y="650" as="targetPoint" />
          </mxGeometry>
        </mxCell>
        <mxCell id="9JvjjZEk37608ZKm6qpz-32" value="" style="rounded=0;orthogonalLoop=1;jettySize=auto;html=1;fontFamily=Helvetica;fontSize=11;fontColor=default;fontStyle=0;labelBackgroundColor=default;resizable=0;" parent="kHN6MsCyqRyvkHSUbOPT-355" source="9JvjjZEk37608ZKm6qpz-29" target="9JvjjZEk37608ZKm6qpz-28" edge="1">
          <mxGeometry relative="1" as="geometry">
            <mxPoint x="2247" y="570" as="sourcePoint" />
            <mxPoint x="2132" y="650" as="targetPoint" />
          </mxGeometry>
        </mxCell>
        <mxCell id="9JvjjZEk37608ZKm6qpz-35" value="Модуль загрузки картинок" style="swimlane;whiteSpace=wrap;html=1;fontFamily=Helvetica;fontSize=11;fontColor=default;labelBackgroundColor=default;startSize=23;" parent="1" vertex="1">
          <mxGeometry x="720" y="-310" width="680" height="590" as="geometry" />
        </mxCell>
        <UserObject label="ImageLoader" id="9JvjjZEk37608ZKm6qpz-37">
          <mxCell style="swimlane;fontStyle=0;childLayout=stackLayout;horizontal=1;startSize=26;fillColor=none;horizontalStack=0;resizeParent=1;resizeParentMax=0;resizeLast=0;collapsible=1;marginBottom=0;whiteSpace=wrap;html=1;fontFamily=Helvetica;fontSize=11;fontColor=default;labelBackgroundColor=default;" parent="9JvjjZEk37608ZKm6qpz-35" vertex="1">
            <mxGeometry x="20" y="52" width="214" height="52" as="geometry" />
          </mxCell>
        </UserObject>
        <mxCell id="9JvjjZEk37608ZKm6qpz-38" value="+ load_image_as_argb32() -&amp;gt; QImage" style="text;strokeColor=none;fillColor=none;align=left;verticalAlign=top;spacingLeft=4;spacingRight=4;overflow=hidden;rotatable=0;points=[[0,0.5],[1,0.5]];portConstraint=eastwest;whiteSpace=wrap;html=1;fontFamily=Helvetica;fontSize=11;fontColor=default;labelBackgroundColor=default;" parent="9JvjjZEk37608ZKm6qpz-37" vertex="1">
          <mxGeometry y="26" width="214" height="26" as="geometry" />
        </mxCell>
        <mxCell id="9JvjjZEk37608ZKm6qpz-39" style="edgeStyle=orthogonalEdgeStyle;shape=connector;rounded=0;jumpStyle=arc;jumpSize=12;orthogonalLoop=1;jettySize=auto;html=1;entryX=0;entryY=0.5;entryDx=0;entryDy=0;strokeColor=default;align=center;verticalAlign=middle;fontFamily=Helvetica;fontSize=11;fontColor=default;labelBackgroundColor=default;endArrow=classic;" parent="9JvjjZEk37608ZKm6qpz-37" target="9JvjjZEk37608ZKm6qpz-38" edge="1">
          <mxGeometry relative="1" as="geometry" />
        </mxCell>
        <mxCell id="9JvjjZEk37608ZKm6qpz-46" value="Модуль отображения картинки" style="swimlane;whiteSpace=wrap;html=1;fontFamily=Helvetica;fontSize=11;fontColor=default;labelBackgroundColor=default;startSize=23;" parent="1" vertex="1">
          <mxGeometry x="1500" y="-390" width="676" height="350" as="geometry" />
        </mxCell>
        <mxCell id="9JvjjZEk37608ZKm6qpz-48" value="Controller" style="swimlane;fontStyle=0;childLayout=stackLayout;horizontal=1;startSize=26;fillColor=none;horizontalStack=0;resizeParent=1;resizeParentMax=0;resizeLast=0;collapsible=1;marginBottom=0;whiteSpace=wrap;html=1;fontFamily=Helvetica;fontSize=11;fontColor=default;labelBackgroundColor=default;" parent="9JvjjZEk37608ZKm6qpz-46" vertex="1">
          <mxGeometry x="10" y="60" width="214" height="130" as="geometry" />
        </mxCell>
        <mxCell id="9JvjjZEk37608ZKm6qpz-49" value="+ View" style="text;strokeColor=none;fillColor=none;align=left;verticalAlign=top;spacingLeft=4;spacingRight=4;overflow=hidden;rotatable=0;points=[[0,0.5],[1,0.5]];portConstraint=eastwest;whiteSpace=wrap;html=1;fontFamily=Helvetica;fontSize=11;fontColor=default;labelBackgroundColor=default;" parent="9JvjjZEk37608ZKm6qpz-48" vertex="1">
          <mxGeometry y="26" width="214" height="26" as="geometry" />
        </mxCell>
        <mxCell id="9JvjjZEk37608ZKm6qpz-67" value="+ Model" style="text;strokeColor=none;fillColor=none;align=left;verticalAlign=top;spacingLeft=4;spacingRight=4;overflow=hidden;rotatable=0;points=[[0,0.5],[1,0.5]];portConstraint=eastwest;whiteSpace=wrap;html=1;fontFamily=Helvetica;fontSize=11;fontColor=default;labelBackgroundColor=default;" parent="9JvjjZEk37608ZKm6qpz-48" vertex="1">
          <mxGeometry y="52" width="214" height="26" as="geometry" />
        </mxCell>
        <mxCell id="9JvjjZEk37608ZKm6qpz-68" value="+ set_image(ImageObjectBase)" style="text;strokeColor=none;fillColor=none;align=left;verticalAlign=top;spacingLeft=4;spacingRight=4;overflow=hidden;rotatable=0;points=[[0,0.5],[1,0.5]];portConstraint=eastwest;whiteSpace=wrap;html=1;fontFamily=Helvetica;fontSize=11;fontColor=default;labelBackgroundColor=default;" parent="9JvjjZEk37608ZKm6qpz-48" vertex="1">
          <mxGeometry y="78" width="214" height="26" as="geometry" />
        </mxCell>
        <mxCell id="9JvjjZEk37608ZKm6qpz-72" value="__init__() (создаём view и model)" style="text;strokeColor=none;fillColor=none;align=left;verticalAlign=top;spacingLeft=4;spacingRight=4;overflow=hidden;rotatable=0;points=[[0,0.5],[1,0.5]];portConstraint=eastwest;whiteSpace=wrap;html=1;fontFamily=Helvetica;fontSize=11;fontColor=default;labelBackgroundColor=default;" parent="9JvjjZEk37608ZKm6qpz-48" vertex="1">
          <mxGeometry y="104" width="214" height="26" as="geometry" />
        </mxCell>
        <mxCell id="9JvjjZEk37608ZKm6qpz-50" style="edgeStyle=orthogonalEdgeStyle;shape=connector;rounded=0;jumpStyle=arc;jumpSize=12;orthogonalLoop=1;jettySize=auto;html=1;entryX=0;entryY=0.5;entryDx=0;entryDy=0;strokeColor=default;align=center;verticalAlign=middle;fontFamily=Helvetica;fontSize=11;fontColor=default;labelBackgroundColor=default;endArrow=classic;" parent="9JvjjZEk37608ZKm6qpz-48" target="9JvjjZEk37608ZKm6qpz-49" edge="1">
          <mxGeometry relative="1" as="geometry" />
        </mxCell>
        <mxCell id="9JvjjZEk37608ZKm6qpz-55" value="View" style="swimlane;fontStyle=0;childLayout=stackLayout;horizontal=1;startSize=26;fillColor=none;horizontalStack=0;resizeParent=1;resizeParentMax=0;resizeLast=0;collapsible=1;marginBottom=0;whiteSpace=wrap;html=1;fontFamily=Helvetica;fontSize=11;fontColor=default;labelBackgroundColor=default;" parent="9JvjjZEk37608ZKm6qpz-46" vertex="1">
          <mxGeometry x="430" y="60" width="214" height="52" as="geometry" />
        </mxCell>
        <mxCell id="9JvjjZEk37608ZKm6qpz-61" value="Model" style="swimlane;fontStyle=0;childLayout=stackLayout;horizontal=1;startSize=26;fillColor=none;horizontalStack=0;resizeParent=1;resizeParentMax=0;resizeLast=0;collapsible=1;marginBottom=0;whiteSpace=wrap;html=1;fontFamily=Helvetica;fontSize=11;fontColor=default;labelBackgroundColor=default;" parent="9JvjjZEk37608ZKm6qpz-46" vertex="1">
          <mxGeometry x="430" y="190" width="214" height="52" as="geometry" />
        </mxCell>
        <mxCell id="9JvjjZEk37608ZKm6qpz-73" value="__img:QImage" style="text;strokeColor=none;fillColor=none;align=left;verticalAlign=top;spacingLeft=4;spacingRight=4;overflow=hidden;rotatable=0;points=[[0,0.5],[1,0.5]];portConstraint=eastwest;whiteSpace=wrap;html=1;fontFamily=Helvetica;fontSize=11;fontColor=default;labelBackgroundColor=default;" parent="9JvjjZEk37608ZKm6qpz-61" vertex="1">
          <mxGeometry y="26" width="214" height="26" as="geometry" />
        </mxCell>
        <mxCell id="9JvjjZEk37608ZKm6qpz-70" style="edgeStyle=orthogonalEdgeStyle;rounded=0;orthogonalLoop=1;jettySize=auto;html=1;fontFamily=Helvetica;fontSize=11;fontColor=default;fontStyle=0;labelBackgroundColor=default;resizable=0;" parent="9JvjjZEk37608ZKm6qpz-46" source="9JvjjZEk37608ZKm6qpz-49" target="9JvjjZEk37608ZKm6qpz-55" edge="1">
          <mxGeometry relative="1" as="geometry" />
        </mxCell>
        <mxCell id="9JvjjZEk37608ZKm6qpz-71" style="edgeStyle=orthogonalEdgeStyle;rounded=0;orthogonalLoop=1;jettySize=auto;html=1;fontFamily=Helvetica;fontSize=11;fontColor=default;fontStyle=0;labelBackgroundColor=default;resizable=0;" parent="9JvjjZEk37608ZKm6qpz-46" source="9JvjjZEk37608ZKm6qpz-67" target="9JvjjZEk37608ZKm6qpz-61" edge="1">
          <mxGeometry relative="1" as="geometry">
            <Array as="points">
              <mxPoint x="450" y="125" />
            </Array>
          </mxGeometry>
        </mxCell>
        <mxCell id="9JvjjZEk37608ZKm6qpz-74" value="Модуль преобразования картинки" style="swimlane;whiteSpace=wrap;html=1;fontFamily=Helvetica;fontSize=11;fontColor=default;labelBackgroundColor=default;startSize=23;" parent="1" vertex="1">
          <mxGeometry x="2260" y="-460" width="1650" height="640" as="geometry" />
        </mxCell>
        <mxCell id="9JvjjZEk37608ZKm6qpz-94" value="AlgorithmBase (SignletonMeta)" style="swimlane;fontStyle=0;childLayout=stackLayout;horizontal=1;startSize=26;fillColor=none;horizontalStack=0;resizeParent=1;resizeParentMax=0;resizeLast=0;collapsible=1;marginBottom=0;whiteSpace=wrap;html=1;rounded=0;strokeColor=default;align=center;verticalAlign=middle;fontFamily=Helvetica;fontSize=11;fontColor=default;labelBackgroundColor=default;" parent="9JvjjZEk37608ZKm6qpz-74" vertex="1">
          <mxGeometry x="580" y="124" width="300" height="168" as="geometry" />
        </mxCell>
        <mxCell id="9JvjjZEk37608ZKm6qpz-95" value="__init__()" style="text;strokeColor=none;fillColor=none;align=left;verticalAlign=top;spacingLeft=4;spacingRight=4;overflow=hidden;rotatable=0;points=[[0,0.5],[1,0.5]];portConstraint=eastwest;whiteSpace=wrap;html=1;fontFamily=Helvetica;fontSize=11;fontColor=default;fontStyle=0;labelBackgroundColor=default;" parent="9JvjjZEk37608ZKm6qpz-94" vertex="1">
          <mxGeometry y="26" width="300" height="26" as="geometry" />
        </mxCell>
        <mxCell id="BKKUUPH9oP-g0jZoV5C_-9" style="edgeStyle=orthogonalEdgeStyle;rounded=0;orthogonalLoop=1;jettySize=auto;html=1;entryX=0;entryY=0.5;entryDx=0;entryDy=0;fontFamily=Helvetica;fontSize=11;fontColor=default;fontStyle=0;labelBackgroundColor=default;resizable=0;" edge="1" parent="9JvjjZEk37608ZKm6qpz-94" source="9JvjjZEk37608ZKm6qpz-96" target="BKKUUPH9oP-g0jZoV5C_-8">
          <mxGeometry relative="1" as="geometry" />
        </mxCell>
        <mxCell id="9JvjjZEk37608ZKm6qpz-96" value="+ params_controller: ParamsController (при создании объекта инициализируется из чего угодно)" style="text;strokeColor=none;fillColor=none;align=left;verticalAlign=top;spacingLeft=4;spacingRight=4;overflow=hidden;rotatable=0;points=[[0,0.5],[1,0.5]];portConstraint=eastwest;whiteSpace=wrap;html=1;fontFamily=Helvetica;fontSize=11;fontColor=default;fontStyle=0;labelBackgroundColor=default;" parent="9JvjjZEk37608ZKm6qpz-94" vertex="1">
          <mxGeometry y="52" width="300" height="38" as="geometry" />
        </mxCell>
        <mxCell id="BKKUUPH9oP-g0jZoV5C_-7" value="+ params_updated_signal()" style="text;strokeColor=none;fillColor=none;align=left;verticalAlign=top;spacingLeft=4;spacingRight=4;overflow=hidden;rotatable=0;points=[[0,0.5],[1,0.5]];portConstraint=eastwest;whiteSpace=wrap;html=1;fontFamily=Helvetica;fontSize=11;fontColor=default;fontStyle=0;labelBackgroundColor=default;" vertex="1" parent="9JvjjZEk37608ZKm6qpz-94">
          <mxGeometry y="90" width="300" height="26" as="geometry" />
        </mxCell>
        <mxCell id="BKKUUPH9oP-g0jZoV5C_-8" value="+ params_updated_slot()" style="text;strokeColor=none;fillColor=none;align=left;verticalAlign=top;spacingLeft=4;spacingRight=4;overflow=hidden;rotatable=0;points=[[0,0.5],[1,0.5]];portConstraint=eastwest;whiteSpace=wrap;html=1;fontFamily=Helvetica;fontSize=11;fontColor=default;fontStyle=0;labelBackgroundColor=default;" vertex="1" parent="9JvjjZEk37608ZKm6qpz-94">
          <mxGeometry y="116" width="300" height="26" as="geometry" />
        </mxCell>
        <mxCell id="BKKUUPH9oP-g0jZoV5C_-10" value="+ process_image(ImageObject) -&amp;gt; ImageObject" style="text;strokeColor=none;fillColor=none;align=left;verticalAlign=top;spacingLeft=4;spacingRight=4;overflow=hidden;rotatable=0;points=[[0,0.5],[1,0.5]];portConstraint=eastwest;whiteSpace=wrap;html=1;fontFamily=Helvetica;fontSize=11;fontColor=default;fontStyle=0;labelBackgroundColor=default;" vertex="1" parent="9JvjjZEk37608ZKm6qpz-94">
          <mxGeometry y="142" width="300" height="26" as="geometry" />
        </mxCell>
        <mxCell id="9JvjjZEk37608ZKm6qpz-98" value="&lt;div&gt;Пока сделаем простейшую реализацию&lt;/div&gt;&lt;div&gt;1) Создаём базовую связку классов для алгоритма&lt;/div&gt;&lt;div&gt;2) Когда запускаем приложение, ищем наследников&lt;/div&gt;&lt;div&gt;3) Имена наследников размещаем в combobox алгоритмов&lt;/div&gt;&lt;div&gt;4) Когда алгоритм выбран&amp;nbsp; - подвязываем сигналы и слоты, а также отвязываем старые&lt;/div&gt;&lt;div&gt;5) Интерактивно изменяем картинку&lt;/div&gt;&lt;div&gt;6) Параметризация и ограничение параметров алгоритма происходит на основе ParamsSchemeBase (нельзя подать шляпу, а можно параметризировать хоть на pydantic, хоть на js?)&lt;/div&gt;&lt;div&gt;7) По итогу, когда хотим получить картинку, сначала применяем параметры ImageDestructurizator (сжимаем картинку, например), а затем применяем algorithm&lt;/div&gt;" style="rounded=0;whiteSpace=wrap;html=1;strokeColor=default;align=left;verticalAlign=middle;fontFamily=Helvetica;fontSize=11;fontColor=default;fontStyle=0;labelBackgroundColor=default;fillColor=default;" parent="9JvjjZEk37608ZKm6qpz-74" vertex="1">
          <mxGeometry x="10" y="36" width="290" height="264" as="geometry" />
        </mxCell>
        <mxCell id="BKKUUPH9oP-g0jZoV5C_-73" style="edgeStyle=orthogonalEdgeStyle;shape=connector;rounded=0;jumpStyle=arc;jumpSize=12;orthogonalLoop=1;jettySize=auto;html=1;strokeColor=default;align=center;verticalAlign=middle;fontFamily=Helvetica;fontSize=11;fontColor=default;labelBackgroundColor=default;endArrow=block;endFill=1;endSize=13;" edge="1" parent="9JvjjZEk37608ZKm6qpz-74" source="BKKUUPH9oP-g0jZoV5C_-50" target="9JvjjZEk37608ZKm6qpz-94">
          <mxGeometry relative="1" as="geometry">
            <Array as="points">
              <mxPoint x="1145" y="80" />
              <mxPoint x="730" y="80" />
            </Array>
          </mxGeometry>
        </mxCell>
        <mxCell id="BKKUUPH9oP-g0jZoV5C_-50" value="AlgorithmThresholdOne" style="swimlane;fontStyle=0;childLayout=stackLayout;horizontal=1;startSize=26;fillColor=none;horizontalStack=0;resizeParent=1;resizeParentMax=0;resizeLast=0;collapsible=1;marginBottom=0;whiteSpace=wrap;html=1;rounded=0;strokeColor=default;align=center;verticalAlign=middle;fontFamily=Helvetica;fontSize=11;fontColor=default;labelBackgroundColor=default;" vertex="1" parent="9JvjjZEk37608ZKm6qpz-74">
          <mxGeometry x="1000" y="130" width="270" height="156" as="geometry" />
        </mxCell>
        <mxCell id="BKKUUPH9oP-g0jZoV5C_-51" value="__init__()" style="text;strokeColor=none;fillColor=none;align=left;verticalAlign=top;spacingLeft=4;spacingRight=4;overflow=hidden;rotatable=0;points=[[0,0.5],[1,0.5]];portConstraint=eastwest;whiteSpace=wrap;html=1;fontFamily=Helvetica;fontSize=11;fontColor=default;fontStyle=0;labelBackgroundColor=default;" vertex="1" parent="BKKUUPH9oP-g0jZoV5C_-50">
          <mxGeometry y="26" width="270" height="26" as="geometry" />
        </mxCell>
        <mxCell id="BKKUUPH9oP-g0jZoV5C_-52" style="edgeStyle=orthogonalEdgeStyle;rounded=0;orthogonalLoop=1;jettySize=auto;html=1;entryX=0;entryY=0.5;entryDx=0;entryDy=0;fontFamily=Helvetica;fontSize=11;fontColor=default;fontStyle=0;labelBackgroundColor=default;resizable=0;" edge="1" parent="BKKUUPH9oP-g0jZoV5C_-50" source="BKKUUPH9oP-g0jZoV5C_-53" target="BKKUUPH9oP-g0jZoV5C_-55">
          <mxGeometry relative="1" as="geometry" />
        </mxCell>
        <mxCell id="BKKUUPH9oP-g0jZoV5C_-53" value="+ params_controller: ParamsController" style="text;strokeColor=none;fillColor=none;align=left;verticalAlign=top;spacingLeft=4;spacingRight=4;overflow=hidden;rotatable=0;points=[[0,0.5],[1,0.5]];portConstraint=eastwest;whiteSpace=wrap;html=1;fontFamily=Helvetica;fontSize=11;fontColor=default;fontStyle=0;labelBackgroundColor=default;" vertex="1" parent="BKKUUPH9oP-g0jZoV5C_-50">
          <mxGeometry y="52" width="270" height="26" as="geometry" />
        </mxCell>
        <mxCell id="BKKUUPH9oP-g0jZoV5C_-54" value="+ params_updated_signal()" style="text;strokeColor=none;fillColor=none;align=left;verticalAlign=top;spacingLeft=4;spacingRight=4;overflow=hidden;rotatable=0;points=[[0,0.5],[1,0.5]];portConstraint=eastwest;whiteSpace=wrap;html=1;fontFamily=Helvetica;fontSize=11;fontColor=default;fontStyle=0;labelBackgroundColor=default;" vertex="1" parent="BKKUUPH9oP-g0jZoV5C_-50">
          <mxGeometry y="78" width="270" height="26" as="geometry" />
        </mxCell>
        <mxCell id="BKKUUPH9oP-g0jZoV5C_-55" value="+ params_updated_slot()" style="text;strokeColor=none;fillColor=none;align=left;verticalAlign=top;spacingLeft=4;spacingRight=4;overflow=hidden;rotatable=0;points=[[0,0.5],[1,0.5]];portConstraint=eastwest;whiteSpace=wrap;html=1;fontFamily=Helvetica;fontSize=11;fontColor=default;fontStyle=0;labelBackgroundColor=default;" vertex="1" parent="BKKUUPH9oP-g0jZoV5C_-50">
          <mxGeometry y="104" width="270" height="26" as="geometry" />
        </mxCell>
        <mxCell id="BKKUUPH9oP-g0jZoV5C_-56" value="+ process_image(ImageObject) -&amp;gt; ImageObject" style="text;strokeColor=none;fillColor=none;align=left;verticalAlign=top;spacingLeft=4;spacingRight=4;overflow=hidden;rotatable=0;points=[[0,0.5],[1,0.5]];portConstraint=eastwest;whiteSpace=wrap;html=1;fontFamily=Helvetica;fontSize=11;fontColor=default;fontStyle=0;labelBackgroundColor=default;" vertex="1" parent="BKKUUPH9oP-g0jZoV5C_-50">
          <mxGeometry y="130" width="270" height="26" as="geometry" />
        </mxCell>
        <mxCell id="BKKUUPH9oP-g0jZoV5C_-74" style="edgeStyle=orthogonalEdgeStyle;shape=connector;rounded=0;jumpStyle=arc;jumpSize=12;orthogonalLoop=1;jettySize=auto;html=1;strokeColor=default;align=center;verticalAlign=middle;fontFamily=Helvetica;fontSize=11;fontColor=default;labelBackgroundColor=default;endArrow=block;endFill=1;endSize=13;" edge="1" parent="9JvjjZEk37608ZKm6qpz-74" source="BKKUUPH9oP-g0jZoV5C_-59" target="9JvjjZEk37608ZKm6qpz-94">
          <mxGeometry relative="1" as="geometry">
            <Array as="points">
              <mxPoint x="1445" y="50" />
              <mxPoint x="690" y="50" />
            </Array>
          </mxGeometry>
        </mxCell>
        <mxCell id="BKKUUPH9oP-g0jZoV5C_-59" value="AlgorithmThresholdTwo" style="swimlane;fontStyle=0;childLayout=stackLayout;horizontal=1;startSize=26;fillColor=none;horizontalStack=0;resizeParent=1;resizeParentMax=0;resizeLast=0;collapsible=1;marginBottom=0;whiteSpace=wrap;html=1;rounded=0;strokeColor=default;align=center;verticalAlign=middle;fontFamily=Helvetica;fontSize=11;fontColor=default;labelBackgroundColor=default;" vertex="1" parent="9JvjjZEk37608ZKm6qpz-74">
          <mxGeometry x="1330" y="130" width="290" height="156" as="geometry" />
        </mxCell>
        <mxCell id="BKKUUPH9oP-g0jZoV5C_-60" value="__init__()" style="text;strokeColor=none;fillColor=none;align=left;verticalAlign=top;spacingLeft=4;spacingRight=4;overflow=hidden;rotatable=0;points=[[0,0.5],[1,0.5]];portConstraint=eastwest;whiteSpace=wrap;html=1;fontFamily=Helvetica;fontSize=11;fontColor=default;fontStyle=0;labelBackgroundColor=default;" vertex="1" parent="BKKUUPH9oP-g0jZoV5C_-59">
          <mxGeometry y="26" width="290" height="26" as="geometry" />
        </mxCell>
        <mxCell id="BKKUUPH9oP-g0jZoV5C_-61" style="edgeStyle=orthogonalEdgeStyle;rounded=0;orthogonalLoop=1;jettySize=auto;html=1;entryX=0;entryY=0.5;entryDx=0;entryDy=0;fontFamily=Helvetica;fontSize=11;fontColor=default;fontStyle=0;labelBackgroundColor=default;resizable=0;" edge="1" parent="BKKUUPH9oP-g0jZoV5C_-59" source="BKKUUPH9oP-g0jZoV5C_-62" target="BKKUUPH9oP-g0jZoV5C_-64">
          <mxGeometry relative="1" as="geometry" />
        </mxCell>
        <mxCell id="BKKUUPH9oP-g0jZoV5C_-62" value="+ params_controller: ParamsController" style="text;strokeColor=none;fillColor=none;align=left;verticalAlign=top;spacingLeft=4;spacingRight=4;overflow=hidden;rotatable=0;points=[[0,0.5],[1,0.5]];portConstraint=eastwest;whiteSpace=wrap;html=1;fontFamily=Helvetica;fontSize=11;fontColor=default;fontStyle=0;labelBackgroundColor=default;" vertex="1" parent="BKKUUPH9oP-g0jZoV5C_-59">
          <mxGeometry y="52" width="290" height="26" as="geometry" />
        </mxCell>
        <mxCell id="BKKUUPH9oP-g0jZoV5C_-63" value="+ params_updated_signal()" style="text;strokeColor=none;fillColor=none;align=left;verticalAlign=top;spacingLeft=4;spacingRight=4;overflow=hidden;rotatable=0;points=[[0,0.5],[1,0.5]];portConstraint=eastwest;whiteSpace=wrap;html=1;fontFamily=Helvetica;fontSize=11;fontColor=default;fontStyle=0;labelBackgroundColor=default;" vertex="1" parent="BKKUUPH9oP-g0jZoV5C_-59">
          <mxGeometry y="78" width="290" height="26" as="geometry" />
        </mxCell>
        <mxCell id="BKKUUPH9oP-g0jZoV5C_-64" value="+ params_updated_slot()" style="text;strokeColor=none;fillColor=none;align=left;verticalAlign=top;spacingLeft=4;spacingRight=4;overflow=hidden;rotatable=0;points=[[0,0.5],[1,0.5]];portConstraint=eastwest;whiteSpace=wrap;html=1;fontFamily=Helvetica;fontSize=11;fontColor=default;fontStyle=0;labelBackgroundColor=default;" vertex="1" parent="BKKUUPH9oP-g0jZoV5C_-59">
          <mxGeometry y="104" width="290" height="26" as="geometry" />
        </mxCell>
        <mxCell id="BKKUUPH9oP-g0jZoV5C_-65" value="+ process_image(ImageObject) -&amp;gt; ImageObject" style="text;strokeColor=none;fillColor=none;align=left;verticalAlign=top;spacingLeft=4;spacingRight=4;overflow=hidden;rotatable=0;points=[[0,0.5],[1,0.5]];portConstraint=eastwest;whiteSpace=wrap;html=1;fontFamily=Helvetica;fontSize=11;fontColor=default;fontStyle=0;labelBackgroundColor=default;" vertex="1" parent="BKKUUPH9oP-g0jZoV5C_-59">
          <mxGeometry y="130" width="290" height="26" as="geometry" />
        </mxCell>
        <mxCell id="BKKUUPH9oP-g0jZoV5C_-75" style="edgeStyle=orthogonalEdgeStyle;shape=connector;rounded=0;jumpStyle=arc;jumpSize=12;orthogonalLoop=1;jettySize=auto;html=1;strokeColor=default;align=center;verticalAlign=middle;fontFamily=Helvetica;fontSize=11;fontColor=default;labelBackgroundColor=default;endArrow=block;endFill=1;endSize=13;" edge="1" parent="9JvjjZEk37608ZKm6qpz-74" source="BKKUUPH9oP-g0jZoV5C_-66" target="9JvjjZEk37608ZKm6qpz-94">
          <mxGeometry relative="1" as="geometry">
            <Array as="points">
              <mxPoint x="940" y="436" />
              <mxPoint x="940" y="100" />
              <mxPoint x="790" y="100" />
            </Array>
          </mxGeometry>
        </mxCell>
        <mxCell id="BKKUUPH9oP-g0jZoV5C_-66" value="AlgorithmAreaAverage" style="swimlane;fontStyle=0;childLayout=stackLayout;horizontal=1;startSize=23;fillColor=none;horizontalStack=0;resizeParent=1;resizeParentMax=0;resizeLast=0;collapsible=1;marginBottom=0;whiteSpace=wrap;html=1;rounded=0;strokeColor=default;align=center;verticalAlign=middle;fontFamily=Helvetica;fontSize=11;fontColor=default;labelBackgroundColor=default;" vertex="1" parent="9JvjjZEk37608ZKm6qpz-74">
          <mxGeometry x="1040" y="360" width="300" height="153" as="geometry" />
        </mxCell>
        <mxCell id="BKKUUPH9oP-g0jZoV5C_-67" value="__init__()" style="text;strokeColor=none;fillColor=none;align=left;verticalAlign=top;spacingLeft=4;spacingRight=4;overflow=hidden;rotatable=0;points=[[0,0.5],[1,0.5]];portConstraint=eastwest;whiteSpace=wrap;html=1;fontFamily=Helvetica;fontSize=11;fontColor=default;fontStyle=0;labelBackgroundColor=default;" vertex="1" parent="BKKUUPH9oP-g0jZoV5C_-66">
          <mxGeometry y="23" width="300" height="26" as="geometry" />
        </mxCell>
        <mxCell id="BKKUUPH9oP-g0jZoV5C_-68" style="edgeStyle=orthogonalEdgeStyle;rounded=0;orthogonalLoop=1;jettySize=auto;html=1;entryX=0;entryY=0.5;entryDx=0;entryDy=0;fontFamily=Helvetica;fontSize=11;fontColor=default;fontStyle=0;labelBackgroundColor=default;resizable=0;" edge="1" parent="BKKUUPH9oP-g0jZoV5C_-66" source="BKKUUPH9oP-g0jZoV5C_-69" target="BKKUUPH9oP-g0jZoV5C_-71">
          <mxGeometry relative="1" as="geometry" />
        </mxCell>
        <mxCell id="BKKUUPH9oP-g0jZoV5C_-69" value="+ params_controller: ParamsController" style="text;strokeColor=none;fillColor=none;align=left;verticalAlign=top;spacingLeft=4;spacingRight=4;overflow=hidden;rotatable=0;points=[[0,0.5],[1,0.5]];portConstraint=eastwest;whiteSpace=wrap;html=1;fontFamily=Helvetica;fontSize=11;fontColor=default;fontStyle=0;labelBackgroundColor=default;" vertex="1" parent="BKKUUPH9oP-g0jZoV5C_-66">
          <mxGeometry y="49" width="300" height="26" as="geometry" />
        </mxCell>
        <mxCell id="BKKUUPH9oP-g0jZoV5C_-70" value="+ params_updated_signal()" style="text;strokeColor=none;fillColor=none;align=left;verticalAlign=top;spacingLeft=4;spacingRight=4;overflow=hidden;rotatable=0;points=[[0,0.5],[1,0.5]];portConstraint=eastwest;whiteSpace=wrap;html=1;fontFamily=Helvetica;fontSize=11;fontColor=default;fontStyle=0;labelBackgroundColor=default;" vertex="1" parent="BKKUUPH9oP-g0jZoV5C_-66">
          <mxGeometry y="75" width="300" height="26" as="geometry" />
        </mxCell>
        <mxCell id="BKKUUPH9oP-g0jZoV5C_-71" value="+ params_updated_slot()" style="text;strokeColor=none;fillColor=none;align=left;verticalAlign=top;spacingLeft=4;spacingRight=4;overflow=hidden;rotatable=0;points=[[0,0.5],[1,0.5]];portConstraint=eastwest;whiteSpace=wrap;html=1;fontFamily=Helvetica;fontSize=11;fontColor=default;fontStyle=0;labelBackgroundColor=default;" vertex="1" parent="BKKUUPH9oP-g0jZoV5C_-66">
          <mxGeometry y="101" width="300" height="26" as="geometry" />
        </mxCell>
        <mxCell id="BKKUUPH9oP-g0jZoV5C_-72" value="+ process_image(ImageObject) -&amp;gt; ImageObject" style="text;strokeColor=none;fillColor=none;align=left;verticalAlign=top;spacingLeft=4;spacingRight=4;overflow=hidden;rotatable=0;points=[[0,0.5],[1,0.5]];portConstraint=eastwest;whiteSpace=wrap;html=1;fontFamily=Helvetica;fontSize=11;fontColor=default;fontStyle=0;labelBackgroundColor=default;" vertex="1" parent="BKKUUPH9oP-g0jZoV5C_-66">
          <mxGeometry y="127" width="300" height="26" as="geometry" />
        </mxCell>
        <mxCell id="BKKUUPH9oP-g0jZoV5C_-85" value="ImageDestructurizator" style="swimlane;fontStyle=0;childLayout=stackLayout;horizontal=1;startSize=26;fillColor=none;horizontalStack=0;resizeParent=1;resizeParentMax=0;resizeLast=0;collapsible=1;marginBottom=0;whiteSpace=wrap;html=1;rounded=0;strokeColor=default;align=center;verticalAlign=middle;fontFamily=Helvetica;fontSize=11;fontColor=default;labelBackgroundColor=default;" vertex="1" parent="9JvjjZEk37608ZKm6qpz-74">
          <mxGeometry x="90" y="340" width="300" height="168" as="geometry" />
        </mxCell>
        <mxCell id="BKKUUPH9oP-g0jZoV5C_-86" value="algorithm: AlgorithmBase" style="text;strokeColor=none;fillColor=none;align=left;verticalAlign=top;spacingLeft=4;spacingRight=4;overflow=hidden;rotatable=0;points=[[0,0.5],[1,0.5]];portConstraint=eastwest;whiteSpace=wrap;html=1;fontFamily=Helvetica;fontSize=11;fontColor=default;fontStyle=0;labelBackgroundColor=default;" vertex="1" parent="BKKUUPH9oP-g0jZoV5C_-85">
          <mxGeometry y="26" width="300" height="26" as="geometry" />
        </mxCell>
        <mxCell id="BKKUUPH9oP-g0jZoV5C_-87" style="edgeStyle=orthogonalEdgeStyle;rounded=0;orthogonalLoop=1;jettySize=auto;html=1;entryX=0;entryY=0.5;entryDx=0;entryDy=0;fontFamily=Helvetica;fontSize=11;fontColor=default;fontStyle=0;labelBackgroundColor=default;resizable=0;" edge="1" parent="BKKUUPH9oP-g0jZoV5C_-85" source="BKKUUPH9oP-g0jZoV5C_-88" target="BKKUUPH9oP-g0jZoV5C_-90">
          <mxGeometry relative="1" as="geometry" />
        </mxCell>
        <mxCell id="BKKUUPH9oP-g0jZoV5C_-88" value="+ params_controller: ParamsController (при создании объекта инициализируется из чего угодно)" style="text;strokeColor=none;fillColor=none;align=left;verticalAlign=top;spacingLeft=4;spacingRight=4;overflow=hidden;rotatable=0;points=[[0,0.5],[1,0.5]];portConstraint=eastwest;whiteSpace=wrap;html=1;fontFamily=Helvetica;fontSize=11;fontColor=default;fontStyle=0;labelBackgroundColor=default;" vertex="1" parent="BKKUUPH9oP-g0jZoV5C_-85">
          <mxGeometry y="52" width="300" height="38" as="geometry" />
        </mxCell>
        <mxCell id="BKKUUPH9oP-g0jZoV5C_-89" value="+ params_updated_signal()" style="text;strokeColor=none;fillColor=none;align=left;verticalAlign=top;spacingLeft=4;spacingRight=4;overflow=hidden;rotatable=0;points=[[0,0.5],[1,0.5]];portConstraint=eastwest;whiteSpace=wrap;html=1;fontFamily=Helvetica;fontSize=11;fontColor=default;fontStyle=0;labelBackgroundColor=default;" vertex="1" parent="BKKUUPH9oP-g0jZoV5C_-85">
          <mxGeometry y="90" width="300" height="26" as="geometry" />
        </mxCell>
        <mxCell id="BKKUUPH9oP-g0jZoV5C_-90" value="+ params_updated_slot()" style="text;strokeColor=none;fillColor=none;align=left;verticalAlign=top;spacingLeft=4;spacingRight=4;overflow=hidden;rotatable=0;points=[[0,0.5],[1,0.5]];portConstraint=eastwest;whiteSpace=wrap;html=1;fontFamily=Helvetica;fontSize=11;fontColor=default;fontStyle=0;labelBackgroundColor=default;" vertex="1" parent="BKKUUPH9oP-g0jZoV5C_-85">
          <mxGeometry y="116" width="300" height="26" as="geometry" />
        </mxCell>
        <mxCell id="BKKUUPH9oP-g0jZoV5C_-95" value="+ get_image() -&amp;gt; ImageObject" style="text;strokeColor=none;fillColor=none;align=left;verticalAlign=top;spacingLeft=4;spacingRight=4;overflow=hidden;rotatable=0;points=[[0,0.5],[1,0.5]];portConstraint=eastwest;whiteSpace=wrap;html=1;fontFamily=Helvetica;fontSize=11;fontColor=default;fontStyle=0;labelBackgroundColor=default;" vertex="1" parent="BKKUUPH9oP-g0jZoV5C_-85">
          <mxGeometry y="142" width="300" height="26" as="geometry" />
        </mxCell>
        <mxCell id="BKKUUPH9oP-g0jZoV5C_-94" style="edgeStyle=orthogonalEdgeStyle;shape=connector;rounded=0;orthogonalLoop=1;jettySize=auto;html=1;strokeColor=default;align=center;verticalAlign=middle;fontFamily=Helvetica;fontSize=11;fontColor=default;fontStyle=0;labelBackgroundColor=default;resizable=0;endArrow=classic;" edge="1" parent="9JvjjZEk37608ZKm6qpz-74" source="BKKUUPH9oP-g0jZoV5C_-86" target="9JvjjZEk37608ZKm6qpz-94">
          <mxGeometry relative="1" as="geometry">
            <Array as="points">
              <mxPoint x="70" y="379" />
              <mxPoint x="70" y="320" />
              <mxPoint x="520" y="320" />
              <mxPoint x="520" y="80" />
              <mxPoint x="620" y="80" />
            </Array>
          </mxGeometry>
        </mxCell>
        <mxCell id="BKKUUPH9oP-g0jZoV5C_-101" value="&lt;div&gt;Сначала применяем фильтры, которые настроены нашими параметрами (сжимаем размер)&lt;/div&gt;&lt;div&gt;Затем, применяем сам алгоритм к полученному файлу&lt;/div&gt;&lt;div&gt;возвращаем картинку&lt;/div&gt;" style="rounded=0;whiteSpace=wrap;html=1;strokeColor=default;align=center;verticalAlign=middle;fontFamily=Helvetica;fontSize=11;fontColor=default;fontStyle=0;labelBackgroundColor=none;horizontal=1;fillColor=none;" vertex="1" parent="9JvjjZEk37608ZKm6qpz-74">
          <mxGeometry x="510" y="436.25" width="250" height="117.5" as="geometry" />
        </mxCell>
        <mxCell id="BKKUUPH9oP-g0jZoV5C_-97" style="edgeStyle=orthogonalEdgeStyle;shape=connector;rounded=0;orthogonalLoop=1;jettySize=auto;html=1;strokeColor=default;align=center;verticalAlign=middle;fontFamily=Helvetica;fontSize=11;fontColor=default;fontStyle=0;labelBackgroundColor=default;resizable=0;endArrow=classic;" edge="1" parent="9JvjjZEk37608ZKm6qpz-74" source="BKKUUPH9oP-g0jZoV5C_-95" target="BKKUUPH9oP-g0jZoV5C_-101">
          <mxGeometry relative="1" as="geometry">
            <mxPoint x="515" y="495" as="targetPoint" />
          </mxGeometry>
        </mxCell>
        <mxCell id="BKKUUPH9oP-g0jZoV5C_-11" value="Объект картинки" style="swimlane;whiteSpace=wrap;html=1;fontFamily=Helvetica;fontSize=11;fontColor=default;labelBackgroundColor=default;startSize=23;" vertex="1" parent="1">
          <mxGeometry x="1510" y="10" width="676" height="350" as="geometry" />
        </mxCell>
        <mxCell id="BKKUUPH9oP-g0jZoV5C_-12" value="ImageObjectBase" style="swimlane;fontStyle=0;childLayout=stackLayout;horizontal=1;startSize=26;fillColor=none;horizontalStack=0;resizeParent=1;resizeParentMax=0;resizeLast=0;collapsible=1;marginBottom=0;whiteSpace=wrap;html=1;fontFamily=Helvetica;fontSize=11;fontColor=default;labelBackgroundColor=default;" vertex="1" parent="BKKUUPH9oP-g0jZoV5C_-11">
          <mxGeometry x="20" y="120" width="170" height="156" as="geometry" />
        </mxCell>
        <mxCell id="BKKUUPH9oP-g0jZoV5C_-14" value="+ width()" style="text;strokeColor=none;fillColor=none;align=left;verticalAlign=top;spacingLeft=4;spacingRight=4;overflow=hidden;rotatable=0;points=[[0,0.5],[1,0.5]];portConstraint=eastwest;whiteSpace=wrap;html=1;fontFamily=Helvetica;fontSize=11;fontColor=default;labelBackgroundColor=default;" vertex="1" parent="BKKUUPH9oP-g0jZoV5C_-12">
          <mxGeometry y="26" width="170" height="26" as="geometry" />
        </mxCell>
        <mxCell id="BKKUUPH9oP-g0jZoV5C_-15" value="+ height()" style="text;strokeColor=none;fillColor=none;align=left;verticalAlign=top;spacingLeft=4;spacingRight=4;overflow=hidden;rotatable=0;points=[[0,0.5],[1,0.5]];portConstraint=eastwest;whiteSpace=wrap;html=1;fontFamily=Helvetica;fontSize=11;fontColor=default;labelBackgroundColor=default;" vertex="1" parent="BKKUUPH9oP-g0jZoV5C_-12">
          <mxGeometry y="52" width="170" height="26" as="geometry" />
        </mxCell>
        <mxCell id="BKKUUPH9oP-g0jZoV5C_-35" value="+ shape()" style="text;strokeColor=none;fillColor=none;align=left;verticalAlign=top;spacingLeft=4;spacingRight=4;overflow=hidden;rotatable=0;points=[[0,0.5],[1,0.5]];portConstraint=eastwest;whiteSpace=wrap;html=1;fontFamily=Helvetica;fontSize=11;fontColor=default;labelBackgroundColor=default;" vertex="1" parent="BKKUUPH9oP-g0jZoV5C_-12">
          <mxGeometry y="78" width="170" height="26" as="geometry" />
        </mxCell>
        <mxCell id="BKKUUPH9oP-g0jZoV5C_-16" value="+ get_color_scheme()" style="text;strokeColor=none;fillColor=none;align=left;verticalAlign=top;spacingLeft=4;spacingRight=4;overflow=hidden;rotatable=0;points=[[0,0.5],[1,0.5]];portConstraint=eastwest;whiteSpace=wrap;html=1;fontFamily=Helvetica;fontSize=11;fontColor=default;labelBackgroundColor=default;" vertex="1" parent="BKKUUPH9oP-g0jZoV5C_-12">
          <mxGeometry y="104" width="170" height="26" as="geometry" />
        </mxCell>
        <mxCell id="BKKUUPH9oP-g0jZoV5C_-27" value="+ get_as_numpy()" style="text;strokeColor=none;fillColor=none;align=left;verticalAlign=top;spacingLeft=4;spacingRight=4;overflow=hidden;rotatable=0;points=[[0,0.5],[1,0.5]];portConstraint=eastwest;whiteSpace=wrap;html=1;fontFamily=Helvetica;fontSize=11;fontColor=default;labelBackgroundColor=default;" vertex="1" parent="BKKUUPH9oP-g0jZoV5C_-12">
          <mxGeometry y="130" width="170" height="26" as="geometry" />
        </mxCell>
        <mxCell id="BKKUUPH9oP-g0jZoV5C_-36" value="ImageObjectARGB" style="swimlane;fontStyle=0;childLayout=stackLayout;horizontal=1;startSize=26;fillColor=none;horizontalStack=0;resizeParent=1;resizeParentMax=0;resizeLast=0;collapsible=1;marginBottom=0;whiteSpace=wrap;html=1;fontFamily=Helvetica;fontSize=11;fontColor=default;labelBackgroundColor=default;" vertex="1" parent="BKKUUPH9oP-g0jZoV5C_-11">
          <mxGeometry x="230" y="120" width="170" height="156" as="geometry" />
        </mxCell>
        <mxCell id="BKKUUPH9oP-g0jZoV5C_-37" value="+ width()" style="text;strokeColor=none;fillColor=none;align=left;verticalAlign=top;spacingLeft=4;spacingRight=4;overflow=hidden;rotatable=0;points=[[0,0.5],[1,0.5]];portConstraint=eastwest;whiteSpace=wrap;html=1;fontFamily=Helvetica;fontSize=11;fontColor=default;labelBackgroundColor=default;" vertex="1" parent="BKKUUPH9oP-g0jZoV5C_-36">
          <mxGeometry y="26" width="170" height="26" as="geometry" />
        </mxCell>
        <mxCell id="BKKUUPH9oP-g0jZoV5C_-38" value="+ height()" style="text;strokeColor=none;fillColor=none;align=left;verticalAlign=top;spacingLeft=4;spacingRight=4;overflow=hidden;rotatable=0;points=[[0,0.5],[1,0.5]];portConstraint=eastwest;whiteSpace=wrap;html=1;fontFamily=Helvetica;fontSize=11;fontColor=default;labelBackgroundColor=default;" vertex="1" parent="BKKUUPH9oP-g0jZoV5C_-36">
          <mxGeometry y="52" width="170" height="26" as="geometry" />
        </mxCell>
        <mxCell id="BKKUUPH9oP-g0jZoV5C_-39" value="+ shape()" style="text;strokeColor=none;fillColor=none;align=left;verticalAlign=top;spacingLeft=4;spacingRight=4;overflow=hidden;rotatable=0;points=[[0,0.5],[1,0.5]];portConstraint=eastwest;whiteSpace=wrap;html=1;fontFamily=Helvetica;fontSize=11;fontColor=default;labelBackgroundColor=default;" vertex="1" parent="BKKUUPH9oP-g0jZoV5C_-36">
          <mxGeometry y="78" width="170" height="26" as="geometry" />
        </mxCell>
        <mxCell id="BKKUUPH9oP-g0jZoV5C_-40" value="+ get_color_scheme()" style="text;strokeColor=none;fillColor=none;align=left;verticalAlign=top;spacingLeft=4;spacingRight=4;overflow=hidden;rotatable=0;points=[[0,0.5],[1,0.5]];portConstraint=eastwest;whiteSpace=wrap;html=1;fontFamily=Helvetica;fontSize=11;fontColor=default;labelBackgroundColor=default;" vertex="1" parent="BKKUUPH9oP-g0jZoV5C_-36">
          <mxGeometry y="104" width="170" height="26" as="geometry" />
        </mxCell>
        <mxCell id="BKKUUPH9oP-g0jZoV5C_-41" value="+ get_as_numpy()" style="text;strokeColor=none;fillColor=none;align=left;verticalAlign=top;spacingLeft=4;spacingRight=4;overflow=hidden;rotatable=0;points=[[0,0.5],[1,0.5]];portConstraint=eastwest;whiteSpace=wrap;html=1;fontFamily=Helvetica;fontSize=11;fontColor=default;labelBackgroundColor=default;" vertex="1" parent="BKKUUPH9oP-g0jZoV5C_-36">
          <mxGeometry y="130" width="170" height="26" as="geometry" />
        </mxCell>
        <mxCell id="BKKUUPH9oP-g0jZoV5C_-42" value="ImageObjectBinary" style="swimlane;fontStyle=0;childLayout=stackLayout;horizontal=1;startSize=26;fillColor=none;horizontalStack=0;resizeParent=1;resizeParentMax=0;resizeLast=0;collapsible=1;marginBottom=0;whiteSpace=wrap;html=1;fontFamily=Helvetica;fontSize=11;fontColor=default;labelBackgroundColor=default;" vertex="1" parent="BKKUUPH9oP-g0jZoV5C_-11">
          <mxGeometry x="420" y="120" width="170" height="156" as="geometry" />
        </mxCell>
        <mxCell id="BKKUUPH9oP-g0jZoV5C_-43" value="+ width()" style="text;strokeColor=none;fillColor=none;align=left;verticalAlign=top;spacingLeft=4;spacingRight=4;overflow=hidden;rotatable=0;points=[[0,0.5],[1,0.5]];portConstraint=eastwest;whiteSpace=wrap;html=1;fontFamily=Helvetica;fontSize=11;fontColor=default;labelBackgroundColor=default;" vertex="1" parent="BKKUUPH9oP-g0jZoV5C_-42">
          <mxGeometry y="26" width="170" height="26" as="geometry" />
        </mxCell>
        <mxCell id="BKKUUPH9oP-g0jZoV5C_-44" value="+ height()" style="text;strokeColor=none;fillColor=none;align=left;verticalAlign=top;spacingLeft=4;spacingRight=4;overflow=hidden;rotatable=0;points=[[0,0.5],[1,0.5]];portConstraint=eastwest;whiteSpace=wrap;html=1;fontFamily=Helvetica;fontSize=11;fontColor=default;labelBackgroundColor=default;" vertex="1" parent="BKKUUPH9oP-g0jZoV5C_-42">
          <mxGeometry y="52" width="170" height="26" as="geometry" />
        </mxCell>
        <mxCell id="BKKUUPH9oP-g0jZoV5C_-45" value="+ shape()" style="text;strokeColor=none;fillColor=none;align=left;verticalAlign=top;spacingLeft=4;spacingRight=4;overflow=hidden;rotatable=0;points=[[0,0.5],[1,0.5]];portConstraint=eastwest;whiteSpace=wrap;html=1;fontFamily=Helvetica;fontSize=11;fontColor=default;labelBackgroundColor=default;" vertex="1" parent="BKKUUPH9oP-g0jZoV5C_-42">
          <mxGeometry y="78" width="170" height="26" as="geometry" />
        </mxCell>
        <mxCell id="BKKUUPH9oP-g0jZoV5C_-46" value="+ get_color_scheme()" style="text;strokeColor=none;fillColor=none;align=left;verticalAlign=top;spacingLeft=4;spacingRight=4;overflow=hidden;rotatable=0;points=[[0,0.5],[1,0.5]];portConstraint=eastwest;whiteSpace=wrap;html=1;fontFamily=Helvetica;fontSize=11;fontColor=default;labelBackgroundColor=default;" vertex="1" parent="BKKUUPH9oP-g0jZoV5C_-42">
          <mxGeometry y="104" width="170" height="26" as="geometry" />
        </mxCell>
        <mxCell id="BKKUUPH9oP-g0jZoV5C_-47" value="+ get_as_numpy()" style="text;strokeColor=none;fillColor=none;align=left;verticalAlign=top;spacingLeft=4;spacingRight=4;overflow=hidden;rotatable=0;points=[[0,0.5],[1,0.5]];portConstraint=eastwest;whiteSpace=wrap;html=1;fontFamily=Helvetica;fontSize=11;fontColor=default;labelBackgroundColor=default;" vertex="1" parent="BKKUUPH9oP-g0jZoV5C_-42">
          <mxGeometry y="130" width="170" height="26" as="geometry" />
        </mxCell>
        <mxCell id="BKKUUPH9oP-g0jZoV5C_-48" style="edgeStyle=orthogonalEdgeStyle;shape=connector;rounded=0;jumpStyle=arc;jumpSize=12;orthogonalLoop=1;jettySize=auto;html=1;strokeColor=default;align=center;verticalAlign=middle;fontFamily=Helvetica;fontSize=11;fontColor=default;labelBackgroundColor=default;endArrow=block;endFill=1;endSize=13;" edge="1" parent="BKKUUPH9oP-g0jZoV5C_-11" source="BKKUUPH9oP-g0jZoV5C_-36" target="BKKUUPH9oP-g0jZoV5C_-12">
          <mxGeometry relative="1" as="geometry">
            <Array as="points">
              <mxPoint x="315" y="90" />
              <mxPoint x="130" y="90" />
            </Array>
            <mxPoint x="666" y="80" as="sourcePoint" />
            <mxPoint x="10" as="targetPoint" />
          </mxGeometry>
        </mxCell>
        <mxCell id="BKKUUPH9oP-g0jZoV5C_-49" style="edgeStyle=orthogonalEdgeStyle;shape=connector;rounded=0;jumpStyle=arc;jumpSize=12;orthogonalLoop=1;jettySize=auto;html=1;strokeColor=default;align=center;verticalAlign=middle;fontFamily=Helvetica;fontSize=11;fontColor=default;labelBackgroundColor=default;endArrow=block;endFill=1;endSize=13;" edge="1" parent="BKKUUPH9oP-g0jZoV5C_-11" source="BKKUUPH9oP-g0jZoV5C_-42" target="BKKUUPH9oP-g0jZoV5C_-12">
          <mxGeometry relative="1" as="geometry">
            <Array as="points">
              <mxPoint x="500" y="70" />
              <mxPoint x="105" y="70" />
            </Array>
            <mxPoint x="325" y="130" as="sourcePoint" />
            <mxPoint x="115" y="130" as="targetPoint" />
          </mxGeometry>
        </mxCell>
      </root>
    </mxGraphModel>
  </diagram>
</mxfile>
